<?xml version="1.0" encoding="utf-8" standalone="no"?>
<!DOCTYPE svg PUBLIC "-//W3C//DTD SVG 1.1//EN"
  "http://www.w3.org/Graphics/SVG/1.1/DTD/svg11.dtd">
<!-- Created with matplotlib (https://matplotlib.org/) -->
<svg height="288pt" version="1.1" viewBox="0 0 432 288" width="432pt" xmlns="http://www.w3.org/2000/svg" xmlns:xlink="http://www.w3.org/1999/xlink">
 <defs>
  <style type="text/css">
*{stroke-linecap:butt;stroke-linejoin:round;}
  </style>
 </defs>
 <g id="figure_1">
  <g id="patch_1">
   <path d="M 0 288 
L 432 288 
L 432 0 
L 0 0 
z
" style="fill:none;"/>
  </g>
  <g id="axes_1">
   <g id="patch_2">
    <path d="M 54 252 
L 388.8 252 
L 388.8 34.56 
L 54 34.56 
z
" style="fill:none;"/>
   </g>
   <g id="patch_3">
    <path clip-path="url(#pef67f49f13)" d="M 69.218182 252 
L 98.554436 252 
L 98.554436 252 
L 69.218182 252 
z
" style="fill:#b400ff;"/>
   </g>
   <g id="patch_4">
    <path clip-path="url(#pef67f49f13)" d="M 105.888499 252 
L 135.224754 252 
L 135.224754 252 
L 105.888499 252 
z
" style="fill:#b400ff;"/>
   </g>
   <g id="patch_5">
    <path clip-path="url(#pef67f49f13)" d="M 142.558817 252 
L 171.895071 252 
L 171.895071 244.095965 
L 142.558817 244.095965 
z
" style="fill:#b400ff;"/>
   </g>
   <g id="patch_6">
    <path clip-path="url(#pef67f49f13)" d="M 179.229135 252 
L 208.565389 252 
L 208.565389 111.308179 
L 179.229135 111.308179 
z
" style="fill:#b400ff;"/>
   </g>
   <g id="patch_7">
    <path clip-path="url(#pef67f49f13)" d="M 234.234611 252 
L 263.570865 252 
L 263.570865 220.38386 
L 234.234611 220.38386 
z
" style="fill:#3232ff;"/>
   </g>
   <g id="patch_8">
    <path clip-path="url(#pef67f49f13)" d="M 270.904929 252 
L 300.241183 252 
L 300.241183 74.159215 
L 270.904929 74.159215 
z
" style="fill:#3232ff;"/>
   </g>
   <g id="patch_9">
    <path clip-path="url(#pef67f49f13)" d="M 307.575246 252 
L 336.911501 252 
L 336.911501 252 
L 307.575246 252 
z
" style="fill:#3232ff;"/>
   </g>
   <g id="patch_10">
    <path clip-path="url(#pef67f49f13)" d="M 344.245564 252 
L 373.581818 252 
L 373.581818 44.914286 
L 344.245564 44.914286 
z
" style="fill:#3232ff;"/>
   </g>
   <g id="matplotlib.axis_1">
    <g id="xtick_1">
     <g id="line2d_1">
      <defs>
       <path d="M 0 0 
L 0 3.5 
" id="md8c3726041" style="stroke:#000000;stroke-width:0.8;"/>
      </defs>
      <g>
       <use style="stroke:#000000;stroke-width:0.8;" x="138.891785" xlink:href="#md8c3726041" y="252"/>
      </g>
     </g>
     <g id="text_1">
      <!-- UV -->
      <defs>
       <path d="M 60.203125 26.40625 
Q 60.203125 22 59.140625 17.046875 
Q 58.09375 12.09375 55.1875 7.890625 
Q 52.296875 3.703125 47.25 0.953125 
Q 42.203125 -1.796875 34.296875 -1.796875 
Q 26.296875 -1.796875 21.296875 0.953125 
Q 16.296875 3.703125 13.390625 7.890625 
Q 10.5 12.09375 9.453125 17.046875 
Q 8.40625 22 8.40625 26.40625 
L 8.40625 70.796875 
L 15.59375 70.796875 
L 15.59375 27.203125 
Q 15.59375 22.09375 16.59375 18.4375 
Q 17.59375 14.796875 19.25 12.296875 
Q 20.90625 9.796875 22.953125 8.34375 
Q 25 6.90625 27.046875 6.09375 
Q 29.09375 5.296875 31 5.046875 
Q 32.90625 4.796875 34.296875 4.796875 
Q 35.59375 4.796875 37.546875 5.046875 
Q 39.5 5.296875 41.546875 6.09375 
Q 43.59375 6.90625 45.640625 8.34375 
Q 47.703125 9.796875 49.34375 12.296875 
Q 51 14.796875 52 18.4375 
Q 53 22.09375 53 27.203125 
L 53 70.796875 
L 60.203125 70.796875 
z
" id="Avenir-Book-85"/>
       <path d="M 30.203125 10.796875 
L 30.40625 10.796875 
L 53.59375 70.796875 
L 61.40625 70.796875 
L 33.796875 0 
L 26.59375 0 
L -0.296875 70.796875 
L 7.703125 70.796875 
z
" id="Avenir-Book-86"/>
      </defs>
      <g transform="translate(127.21991 272.606875)scale(0.18 -0.18)">
       <use xlink:href="#Avenir-Book-85"/>
       <use x="68.599991" xlink:href="#Avenir-Book-86"/>
      </g>
     </g>
    </g>
    <g id="xtick_2">
     <g id="line2d_2">
      <g>
       <use style="stroke:#000000;stroke-width:0.8;" x="303.908215" xlink:href="#md8c3726041" y="252"/>
      </g>
     </g>
     <g id="text_2">
      <!-- S -->
      <defs>
       <path d="M 43.09375 59.09375 
Q 38.40625 66 29.40625 66 
Q 26.59375 66 23.890625 65.25 
Q 21.203125 64.5 19.046875 62.953125 
Q 16.90625 61.40625 15.59375 58.953125 
Q 14.296875 56.5 14.296875 53.203125 
Q 14.296875 48.40625 17 45.75 
Q 19.703125 43.09375 23.703125 41.390625 
Q 27.703125 39.703125 32.453125 38.34375 
Q 37.203125 37 41.203125 34.75 
Q 45.203125 32.5 47.890625 28.796875 
Q 50.59375 25.09375 50.59375 18.703125 
Q 50.59375 13.90625 48.546875 10.046875 
Q 46.5 6.203125 43.140625 3.59375 
Q 39.796875 1 35.640625 -0.390625 
Q 31.5 -1.796875 27.296875 -1.796875 
Q 20.796875 -1.796875 14.9375 0.640625 
Q 9.09375 3.09375 5 8.703125 
L 11.5 13.40625 
Q 13.796875 9.5 17.890625 7.140625 
Q 22 4.796875 27.59375 4.796875 
Q 30.296875 4.796875 33 5.640625 
Q 35.703125 6.5 37.84375 8.140625 
Q 40 9.796875 41.390625 12.1875 
Q 42.796875 14.59375 42.796875 17.703125 
Q 42.796875 21.40625 41.25 23.84375 
Q 39.703125 26.296875 37.140625 27.9375 
Q 34.59375 29.59375 31.34375 30.6875 
Q 28.09375 31.796875 24.640625 32.890625 
Q 21.203125 34 17.953125 35.390625 
Q 14.703125 36.796875 12.140625 38.9375 
Q 9.59375 41.09375 8.046875 44.34375 
Q 6.5 47.59375 6.5 52.5 
Q 6.5 57.59375 8.453125 61.390625 
Q 10.40625 65.203125 13.65625 67.703125 
Q 16.90625 70.203125 21 71.390625 
Q 25.09375 72.59375 29.40625 72.59375 
Q 35.40625 72.59375 40.296875 70.6875 
Q 45.203125 68.796875 49.40625 64 
z
" id="Avenir-Book-83"/>
      </defs>
      <g transform="translate(298.904777 272.606875)scale(0.18 -0.18)">
       <use xlink:href="#Avenir-Book-83"/>
      </g>
     </g>
    </g>
   </g>
   <g id="matplotlib.axis_2">
    <g id="ytick_1">
     <g id="line2d_3">
      <defs>
       <path d="M 0 0 
L -3.5 0 
" id="mba4e981fbb" style="stroke:#000000;stroke-width:0.8;"/>
      </defs>
      <g>
       <use style="stroke:#000000;stroke-width:0.8;" x="54" xlink:href="#mba4e981fbb" y="252"/>
      </g>
     </g>
     <g id="text_3">
      <!-- 0.0 -->
      <defs>
       <path d="M 27.796875 65.40625 
Q 22 65.40625 18.640625 62.296875 
Q 15.296875 59.203125 13.59375 54.59375 
Q 11.90625 50 11.453125 44.796875 
Q 11 39.59375 11 35.40625 
Q 11 31.203125 11.453125 26 
Q 11.90625 20.796875 13.59375 16.1875 
Q 15.296875 11.59375 18.640625 8.5 
Q 22 5.40625 27.796875 5.40625 
Q 33.59375 5.40625 36.9375 8.5 
Q 40.296875 11.59375 42 16.1875 
Q 43.703125 20.796875 44.140625 26 
Q 44.59375 31.203125 44.59375 35.40625 
Q 44.59375 39.59375 44.140625 44.796875 
Q 43.703125 50 42 54.59375 
Q 40.296875 59.203125 36.9375 62.296875 
Q 33.59375 65.40625 27.796875 65.40625 
z
M 27.796875 72 
Q 35.40625 72 40.09375 68.5 
Q 44.796875 65 47.390625 59.59375 
Q 50 54.203125 50.890625 47.75 
Q 51.796875 41.296875 51.796875 35.40625 
Q 51.796875 29.5 50.890625 23.046875 
Q 50 16.59375 47.390625 11.1875 
Q 44.796875 5.796875 40.09375 2.296875 
Q 35.40625 -1.203125 27.796875 -1.203125 
Q 20.203125 -1.203125 15.5 2.296875 
Q 10.796875 5.796875 8.1875 11.1875 
Q 5.59375 16.59375 4.6875 23.046875 
Q 3.796875 29.5 3.796875 35.40625 
Q 3.796875 41.296875 4.6875 47.75 
Q 5.59375 54.203125 8.1875 59.59375 
Q 10.796875 65 15.5 68.5 
Q 20.203125 72 27.796875 72 
z
" id="Avenir-Book-48"/>
       <path d="M 19.296875 4.796875 
Q 19.296875 2.703125 17.796875 1.046875 
Q 16.296875 -0.59375 13.90625 -0.59375 
Q 11.5 -0.59375 10 1.046875 
Q 8.5 2.703125 8.5 4.796875 
Q 8.5 6.90625 10 8.546875 
Q 11.5 10.203125 13.90625 10.203125 
Q 16.296875 10.203125 17.796875 8.546875 
Q 19.296875 6.90625 19.296875 4.796875 
z
" id="Avenir-Book-46"/>
      </defs>
      <g transform="translate(21.982813 258.803437)scale(0.18 -0.18)">
       <use xlink:href="#Avenir-Book-48"/>
       <use x="55.599991" xlink:href="#Avenir-Book-46"/>
       <use x="83.399979" xlink:href="#Avenir-Book-48"/>
      </g>
     </g>
    </g>
    <g id="ytick_2">
     <g id="line2d_4">
      <g>
       <use style="stroke:#000000;stroke-width:0.8;" x="54" xlink:href="#mba4e981fbb" y="212.479826"/>
      </g>
     </g>
     <g id="text_4">
      <!-- 0.5 -->
      <defs>
       <path d="M 46.5 64.203125 
L 17.5 64.203125 
L 17.09375 42.90625 
Q 19.40625 43.796875 21.796875 44.1875 
Q 24.203125 44.59375 26.59375 44.59375 
Q 31.59375 44.59375 35.6875 42.890625 
Q 39.796875 41.203125 42.75 38.140625 
Q 45.703125 35.09375 47.34375 30.9375 
Q 49 26.796875 49 21.90625 
Q 49 16.796875 47.203125 12.546875 
Q 45.40625 8.296875 42.203125 5.25 
Q 39 2.203125 34.640625 0.5 
Q 30.296875 -1.203125 25.203125 -1.203125 
Q 18.5 -1.203125 13.09375 2 
Q 7.703125 5.203125 4.796875 11.40625 
L 11.90625 14.5 
Q 13.90625 10.296875 17.5 7.84375 
Q 21.09375 5.40625 25.796875 5.40625 
Q 29.203125 5.40625 32.09375 6.65625 
Q 35 7.90625 37.140625 10 
Q 39.296875 12.09375 40.546875 15 
Q 41.796875 17.90625 41.796875 21.203125 
Q 41.796875 24.90625 40.5 28 
Q 39.203125 31.09375 36.890625 33.34375 
Q 34.59375 35.59375 31.390625 36.796875 
Q 28.203125 38 24.40625 38 
Q 20.59375 38 16.84375 36.953125 
Q 13.09375 35.90625 9.703125 34.09375 
L 10.40625 70.796875 
L 46.5 70.796875 
z
" id="Avenir-Book-53"/>
      </defs>
      <g transform="translate(21.982813 219.283263)scale(0.18 -0.18)">
       <use xlink:href="#Avenir-Book-48"/>
       <use x="55.599991" xlink:href="#Avenir-Book-46"/>
       <use x="83.399979" xlink:href="#Avenir-Book-53"/>
      </g>
     </g>
    </g>
    <g id="ytick_3">
     <g id="line2d_5">
      <g>
       <use style="stroke:#000000;stroke-width:0.8;" x="54" xlink:href="#mba4e981fbb" y="172.959651"/>
      </g>
     </g>
     <g id="text_5">
      <!-- 1.0 -->
      <defs>
       <path d="M 34.796875 0 
L 27.59375 0 
L 27.59375 61.796875 
L 14.90625 50.59375 
L 10.40625 56 
L 28.40625 70.796875 
L 34.796875 70.796875 
z
" id="Avenir-Book-49"/>
      </defs>
      <g transform="translate(21.982813 179.763089)scale(0.18 -0.18)">
       <use xlink:href="#Avenir-Book-49"/>
       <use x="55.599991" xlink:href="#Avenir-Book-46"/>
       <use x="83.399979" xlink:href="#Avenir-Book-48"/>
      </g>
     </g>
    </g>
    <g id="ytick_4">
     <g id="line2d_6">
      <g>
       <use style="stroke:#000000;stroke-width:0.8;" x="54" xlink:href="#mba4e981fbb" y="133.439477"/>
      </g>
     </g>
     <g id="text_6">
      <!-- 1.5 -->
      <g transform="translate(21.982813 140.242914)scale(0.18 -0.18)">
       <use xlink:href="#Avenir-Book-49"/>
       <use x="55.599991" xlink:href="#Avenir-Book-46"/>
       <use x="83.399979" xlink:href="#Avenir-Book-53"/>
      </g>
     </g>
    </g>
    <g id="ytick_5">
     <g id="line2d_7">
      <g>
       <use style="stroke:#000000;stroke-width:0.8;" x="54" xlink:href="#mba4e981fbb" y="93.919302"/>
      </g>
     </g>
     <g id="text_7">
      <!-- 2.0 -->
      <defs>
       <path d="M 49.796875 0 
L 4.796875 0 
L 4.796875 8.296875 
L 33 37 
Q 34.59375 38.59375 36.1875 40.390625 
Q 37.796875 42.203125 39.09375 44.203125 
Q 40.40625 46.203125 41.203125 48.390625 
Q 42 50.59375 42 53 
Q 42 55.90625 40.953125 58.203125 
Q 39.90625 60.5 38 62.09375 
Q 36.09375 63.703125 33.59375 64.546875 
Q 31.09375 65.40625 28.296875 65.40625 
Q 22.90625 65.40625 19.09375 62.40625 
Q 15.296875 59.40625 14.203125 54.296875 
L 6.59375 55.09375 
Q 8.09375 63 13.84375 67.5 
Q 19.59375 72 27.796875 72 
Q 32.09375 72 35.9375 70.84375 
Q 39.796875 69.703125 42.75 67.390625 
Q 45.703125 65.09375 47.453125 61.640625 
Q 49.203125 58.203125 49.203125 53.59375 
Q 49.203125 49.5 47.953125 46.09375 
Q 46.703125 42.703125 44.703125 39.703125 
Q 42.703125 36.703125 40.140625 34 
Q 37.59375 31.296875 34.90625 28.703125 
L 12.59375 6.59375 
L 49.796875 6.59375 
z
" id="Avenir-Book-50"/>
      </defs>
      <g transform="translate(21.982813 100.72274)scale(0.18 -0.18)">
       <use xlink:href="#Avenir-Book-50"/>
       <use x="55.599991" xlink:href="#Avenir-Book-46"/>
       <use x="83.399979" xlink:href="#Avenir-Book-48"/>
      </g>
     </g>
    </g>
    <g id="ytick_6">
     <g id="line2d_8">
      <g>
       <use style="stroke:#000000;stroke-width:0.8;" x="54" xlink:href="#mba4e981fbb" y="54.399128"/>
      </g>
     </g>
     <g id="text_8">
      <!-- 2.5 -->
      <g transform="translate(21.982813 61.202565)scale(0.18 -0.18)">
       <use xlink:href="#Avenir-Book-50"/>
       <use x="55.599991" xlink:href="#Avenir-Book-46"/>
       <use x="83.399979" xlink:href="#Avenir-Book-53"/>
      </g>
     </g>
    </g>
    <g id="text_9">
     <!-- norm. counts -->
     <defs>
      <path d="M 13.5 46.796875 
Q 13.703125 44.90625 13.75 43.046875 
Q 13.796875 41.203125 13.796875 39.296875 
L 14 39.296875 
Q 15.09375 41.203125 16.796875 42.796875 
Q 18.5 44.40625 20.59375 45.546875 
Q 22.703125 46.703125 25.046875 47.34375 
Q 27.40625 48 29.703125 48 
Q 38.703125 48 43 43.25 
Q 47.296875 38.5 47.296875 29.703125 
L 47.296875 0 
L 40.703125 0 
L 40.703125 25.90625 
Q 40.703125 33.703125 38 37.84375 
Q 35.296875 42 28 42 
Q 27.5 42 25.203125 41.59375 
Q 22.90625 41.203125 20.34375 39.390625 
Q 17.796875 37.59375 15.796875 34 
Q 13.796875 30.40625 13.796875 24 
L 13.796875 0 
L 7.203125 0 
L 7.203125 36.5 
Q 7.203125 38.40625 7.046875 41.296875 
Q 6.90625 44.203125 6.703125 46.796875 
z
" id="Avenir-Book-110"/>
      <path d="M 47.296875 23.40625 
Q 47.296875 27.296875 46.046875 30.6875 
Q 44.796875 34.09375 42.5 36.59375 
Q 40.203125 39.09375 36.953125 40.546875 
Q 33.703125 42 29.59375 42 
Q 25.5 42 22.25 40.546875 
Q 19 39.09375 16.75 36.59375 
Q 14.5 34.09375 13.25 30.6875 
Q 12 27.296875 12 23.40625 
Q 12 19.5 13.25 16.09375 
Q 14.5 12.703125 16.75 10.203125 
Q 19 7.703125 22.25 6.25 
Q 25.5 4.796875 29.59375 4.796875 
Q 33.703125 4.796875 36.953125 6.25 
Q 40.203125 7.703125 42.5 10.203125 
Q 44.796875 12.703125 46.046875 16.09375 
Q 47.296875 19.5 47.296875 23.40625 
z
M 54.5 23.40625 
Q 54.5 18.09375 52.640625 13.59375 
Q 50.796875 9.09375 47.5 5.796875 
Q 44.203125 2.5 39.640625 0.640625 
Q 35.09375 -1.203125 29.59375 -1.203125 
Q 24.203125 -1.203125 19.640625 0.640625 
Q 15.09375 2.5 11.796875 5.796875 
Q 8.5 9.09375 6.640625 13.59375 
Q 4.796875 18.09375 4.796875 23.40625 
Q 4.796875 28.703125 6.640625 33.203125 
Q 8.5 37.703125 11.796875 41 
Q 15.09375 44.296875 19.640625 46.140625 
Q 24.203125 48 29.59375 48 
Q 35.09375 48 39.640625 46.140625 
Q 44.203125 44.296875 47.5 41 
Q 50.796875 37.703125 52.640625 33.203125 
Q 54.5 28.703125 54.5 23.40625 
z
" id="Avenir-Book-111"/>
      <path d="M 7.90625 32.203125 
Q 7.90625 35.296875 7.75 38.5 
Q 7.59375 41.703125 7.5 46.796875 
L 14 46.796875 
L 14 38.09375 
L 14.203125 38.09375 
Q 14.90625 40 16.203125 41.75 
Q 17.5 43.5 19.34375 44.890625 
Q 21.203125 46.296875 23.640625 47.140625 
Q 26.09375 48 29.203125 48 
Q 32 48 34.09375 47.40625 
L 32.796875 40.90625 
Q 31.5 41.40625 29 41.40625 
Q 25.203125 41.40625 22.5 39.953125 
Q 19.796875 38.5 18 36.25 
Q 16.203125 34 15.34375 31.390625 
Q 14.5 28.796875 14.5 26.40625 
L 14.5 0 
L 7.90625 0 
z
" id="Avenir-Book-114"/>
      <path d="M 7.203125 36.40625 
Q 7.203125 39 7.046875 41.59375 
Q 6.90625 44.203125 6.703125 46.796875 
L 13.796875 46.796875 
L 13.796875 39.703125 
L 14 39.703125 
Q 16.40625 43.796875 20.65625 45.890625 
Q 24.90625 48 29.09375 48 
Q 31 48 33.140625 47.59375 
Q 35.296875 47.203125 37.296875 46.140625 
Q 39.296875 45.09375 41.046875 43.1875 
Q 42.796875 41.296875 44 38.296875 
Q 46 42.796875 50.34375 45.390625 
Q 54.703125 48 59.40625 48 
Q 68.40625 48 72.703125 43.25 
Q 77 38.5 77 29.703125 
L 77 0 
L 70.40625 0 
L 70.40625 27.296875 
Q 70.40625 34.40625 67.90625 38.203125 
Q 65.40625 42 58.59375 42 
Q 54.90625 42 52.40625 40.546875 
Q 49.90625 39.09375 48.34375 36.6875 
Q 46.796875 34.296875 46.09375 31.25 
Q 45.40625 28.203125 45.40625 24.90625 
L 45.40625 0 
L 38.796875 0 
L 38.796875 27.296875 
Q 38.796875 34.40625 36.296875 38.203125 
Q 33.796875 42 27 42 
Q 26.40625 42 24.25 41.59375 
Q 22.09375 41.203125 19.796875 39.390625 
Q 17.5 37.59375 15.640625 34 
Q 13.796875 30.40625 13.796875 24 
L 13.796875 0 
L 7.203125 0 
z
" id="Avenir-Book-109"/>
      <path id="Avenir-Book-32"/>
      <path d="M 41.296875 35.796875 
Q 39.59375 38.40625 36.546875 40.203125 
Q 33.5 42 29.59375 42 
Q 25.5 42.09375 22.25 40.6875 
Q 19 39.296875 16.703125 36.796875 
Q 14.40625 34.296875 13.203125 30.84375 
Q 12 27.40625 12 23.40625 
Q 12 19.40625 13.203125 15.953125 
Q 14.40625 12.5 16.703125 10 
Q 19 7.5 22.25 6.09375 
Q 25.5 4.703125 29.59375 4.796875 
Q 33.5 4.796875 36.546875 6.59375 
Q 39.59375 8.40625 41.296875 11 
L 46.703125 6.90625 
Q 43.203125 2.796875 38.796875 0.84375 
Q 34.40625 -1.09375 29.59375 -1.203125 
Q 23.90625 -1.296875 19.296875 0.546875 
Q 14.703125 2.40625 11.453125 5.703125 
Q 8.203125 9 6.5 13.546875 
Q 4.796875 18.09375 4.796875 23.40625 
Q 4.796875 28.703125 6.5 33.25 
Q 8.203125 37.796875 11.453125 41.09375 
Q 14.703125 44.40625 19.296875 46.25 
Q 23.90625 48.09375 29.59375 48 
Q 34.40625 47.90625 38.796875 45.953125 
Q 43.203125 44 46.703125 39.90625 
z
" id="Avenir-Book-99"/>
      <path d="M 41 0 
Q 40.796875 1.90625 40.75 3.75 
Q 40.703125 5.59375 40.703125 7.5 
L 40.5 7.5 
Q 39.40625 5.59375 37.703125 4 
Q 36 2.40625 33.890625 1.25 
Q 31.796875 0.09375 29.4375 -0.546875 
Q 27.09375 -1.203125 24.796875 -1.203125 
Q 15.796875 -1.203125 11.5 3.546875 
Q 7.203125 8.296875 7.203125 17.09375 
L 7.203125 46.796875 
L 13.796875 46.796875 
L 13.796875 20.90625 
Q 13.796875 17 14.390625 14 
Q 15 11 16.453125 8.953125 
Q 17.90625 6.90625 20.34375 5.84375 
Q 22.796875 4.796875 26.5 4.796875 
Q 27 4.796875 29.296875 5.1875 
Q 31.59375 5.59375 34.140625 7.390625 
Q 36.703125 9.203125 38.703125 12.796875 
Q 40.703125 16.40625 40.703125 22.796875 
L 40.703125 46.796875 
L 47.296875 46.796875 
L 47.296875 10.296875 
Q 47.296875 8.40625 47.4375 5.5 
Q 47.59375 2.59375 47.796875 0 
z
" id="Avenir-Book-117"/>
      <path d="M 31.40625 40.796875 
L 17.90625 40.796875 
L 17.90625 13.203125 
Q 17.90625 10.59375 18.40625 8.9375 
Q 18.90625 7.296875 19.796875 6.390625 
Q 20.703125 5.5 21.953125 5.140625 
Q 23.203125 4.796875 24.703125 4.796875 
Q 26.40625 4.796875 28.203125 5.296875 
Q 30 5.796875 31.5 6.59375 
L 31.796875 0.5 
Q 28.09375 -1.203125 22.90625 -1.203125 
Q 21 -1.203125 18.953125 -0.703125 
Q 16.90625 -0.203125 15.203125 1.1875 
Q 13.5 2.59375 12.390625 5 
Q 11.296875 7.40625 11.296875 11.296875 
L 11.296875 40.796875 
L 1.40625 40.796875 
L 1.40625 46.796875 
L 11.296875 46.796875 
L 11.296875 60 
L 17.90625 60 
L 17.90625 46.796875 
L 31.40625 46.796875 
z
" id="Avenir-Book-116"/>
      <path d="M 32 35.703125 
Q 30.5 38.59375 28 40.296875 
Q 25.5 42 21.90625 42 
Q 20.203125 42 18.453125 41.59375 
Q 16.703125 41.203125 15.296875 40.34375 
Q 13.90625 39.5 13.046875 38.203125 
Q 12.203125 36.90625 12.203125 35 
Q 12.203125 31.703125 14.5 30.203125 
Q 16.796875 28.703125 21.40625 27.59375 
L 28.09375 26 
Q 33 24.90625 36.25 21.546875 
Q 39.5 18.203125 39.5 13.203125 
Q 39.5 9.40625 37.953125 6.65625 
Q 36.40625 3.90625 33.84375 2.15625 
Q 31.296875 0.40625 28 -0.390625 
Q 24.703125 -1.203125 21.296875 -1.203125 
Q 15.90625 -1.203125 11.25 0.84375 
Q 6.59375 2.90625 3.296875 7.90625 
L 9 11.796875 
Q 11 8.59375 14.046875 6.6875 
Q 17.09375 4.796875 21.296875 4.796875 
Q 23.296875 4.796875 25.296875 5.25 
Q 27.296875 5.703125 28.84375 6.640625 
Q 30.40625 7.59375 31.34375 9.09375 
Q 32.296875 10.59375 32.296875 12.59375 
Q 32.296875 16.09375 29.6875 17.640625 
Q 27.09375 19.203125 23.40625 20.09375 
L 17 21.59375 
Q 15.796875 21.90625 13.75 22.59375 
Q 11.703125 23.296875 9.75 24.6875 
Q 7.796875 26.09375 6.390625 28.34375 
Q 5 30.59375 5 33.90625 
Q 5 37.5 6.453125 40.203125 
Q 7.90625 42.90625 10.34375 44.59375 
Q 12.796875 46.296875 15.890625 47.140625 
Q 19 48 22.296875 48 
Q 27.203125 48 31.390625 46.09375 
Q 35.59375 44.203125 37.90625 39.59375 
z
" id="Avenir-Book-115"/>
     </defs>
     <g transform="translate(11.6475 207.452969)rotate(-90)scale(0.22 -0.22)">
      <use xlink:href="#Avenir-Book-110"/>
      <use x="55.599991" xlink:href="#Avenir-Book-111"/>
      <use x="114.899979" xlink:href="#Avenir-Book-114"/>
      <use x="148.115601" xlink:href="#Avenir-Book-109"/>
      <use x="233.315582" xlink:href="#Avenir-Book-46"/>
      <use x="261.11557" xlink:href="#Avenir-Book-32"/>
      <use x="288.915558" xlink:href="#Avenir-Book-99"/>
      <use x="337.115555" xlink:href="#Avenir-Book-111"/>
      <use x="396.415543" xlink:href="#Avenir-Book-117"/>
      <use x="452.015533" xlink:href="#Avenir-Book-110"/>
      <use x="507.615524" xlink:href="#Avenir-Book-116"/>
      <use x="540.815521" xlink:href="#Avenir-Book-115"/>
     </g>
    </g>
    <g id="text_10">
     <!-- 1e2 -->
     <defs>
      <path d="M 12.40625 8.296875 
L 28.515625 8.296875 
L 28.515625 63.921875 
L 10.984375 60.40625 
L 10.984375 69.390625 
L 28.421875 72.90625 
L 38.28125 72.90625 
L 38.28125 8.296875 
L 54.390625 8.296875 
L 54.390625 0 
L 12.40625 0 
z
" id="DejaVuSans-49"/>
      <path d="M 56.203125 29.59375 
L 56.203125 25.203125 
L 14.890625 25.203125 
Q 15.484375 15.921875 20.484375 11.0625 
Q 25.484375 6.203125 34.421875 6.203125 
Q 39.59375 6.203125 44.453125 7.46875 
Q 49.3125 8.734375 54.109375 11.28125 
L 54.109375 2.78125 
Q 49.265625 0.734375 44.1875 -0.34375 
Q 39.109375 -1.421875 33.890625 -1.421875 
Q 20.796875 -1.421875 13.15625 6.1875 
Q 5.515625 13.8125 5.515625 26.8125 
Q 5.515625 40.234375 12.765625 48.109375 
Q 20.015625 56 32.328125 56 
Q 43.359375 56 49.78125 48.890625 
Q 56.203125 41.796875 56.203125 29.59375 
z
M 47.21875 32.234375 
Q 47.125 39.59375 43.09375 43.984375 
Q 39.0625 48.390625 32.421875 48.390625 
Q 24.90625 48.390625 20.390625 44.140625 
Q 15.875 39.890625 15.1875 32.171875 
z
" id="DejaVuSans-101"/>
      <path d="M 19.1875 8.296875 
L 53.609375 8.296875 
L 53.609375 0 
L 7.328125 0 
L 7.328125 8.296875 
Q 12.9375 14.109375 22.625 23.890625 
Q 32.328125 33.6875 34.8125 36.53125 
Q 39.546875 41.84375 41.421875 45.53125 
Q 43.3125 49.21875 43.3125 52.78125 
Q 43.3125 58.59375 39.234375 62.25 
Q 35.15625 65.921875 28.609375 65.921875 
Q 23.96875 65.921875 18.8125 64.3125 
Q 13.671875 62.703125 7.8125 59.421875 
L 7.8125 69.390625 
Q 13.765625 71.78125 18.9375 73 
Q 24.125 74.21875 28.421875 74.21875 
Q 39.75 74.21875 46.484375 68.546875 
Q 53.21875 62.890625 53.21875 53.421875 
Q 53.21875 48.921875 51.53125 44.890625 
Q 49.859375 40.875 45.40625 35.40625 
Q 44.1875 33.984375 37.640625 27.21875 
Q 31.109375 20.453125 19.1875 8.296875 
z
" id="DejaVuSans-50"/>
     </defs>
     <g transform="translate(54 31.56)scale(0.18 -0.18)">
      <use xlink:href="#DejaVuSans-49"/>
      <use x="63.623047" xlink:href="#DejaVuSans-101"/>
      <use x="125.146484" xlink:href="#DejaVuSans-50"/>
     </g>
    </g>
   </g>
   <g id="patch_11">
    <path d="M 54 252 
L 54 34.56 
" style="fill:none;stroke:#000000;stroke-linecap:square;stroke-linejoin:miter;stroke-width:0.8;"/>
   </g>
   <g id="patch_12">
    <path d="M 54 252 
L 388.8 252 
" style="fill:none;stroke:#000000;stroke-linecap:square;stroke-linejoin:miter;stroke-width:0.8;"/>
   </g>
   <g id="text_11">
    <!-- ccdc136b -->
    <defs>
     <path d="M 11.203125 23.40625 
Q 11.203125 19.5 12.453125 16.09375 
Q 13.703125 12.703125 16 10.203125 
Q 18.296875 7.703125 21.546875 6.25 
Q 24.796875 4.796875 28.90625 4.796875 
Q 32.90625 4.796875 36.34375 6.25 
Q 39.796875 7.703125 42.296875 10.203125 
Q 44.796875 12.703125 46.1875 16.09375 
Q 47.59375 19.5 47.59375 23.40625 
Q 47.59375 27.296875 46.1875 30.6875 
Q 44.796875 34.09375 42.296875 36.59375 
Q 39.796875 39.09375 36.34375 40.546875 
Q 32.90625 42 28.90625 42 
Q 24.796875 42 21.546875 40.546875 
Q 18.296875 39.09375 16 36.59375 
Q 13.703125 34.09375 12.453125 30.6875 
Q 11.203125 27.296875 11.203125 23.40625 
z
M 53.90625 0 
L 47.296875 0 
L 47.296875 7.796875 
L 47.09375 7.796875 
Q 45.5 5.40625 43.296875 3.703125 
Q 41.09375 2 38.6875 0.890625 
Q 36.296875 -0.203125 33.75 -0.703125 
Q 31.203125 -1.203125 28.90625 -1.203125 
Q 23.40625 -1.203125 18.84375 0.640625 
Q 14.296875 2.5 11 5.796875 
Q 7.703125 9.09375 5.84375 13.59375 
Q 4 18.09375 4 23.40625 
Q 4 28.703125 5.84375 33.203125 
Q 7.703125 37.703125 11 41 
Q 14.296875 44.296875 18.84375 46.140625 
Q 23.40625 48 28.90625 48 
Q 31.203125 48 33.75 47.5 
Q 36.296875 47 38.6875 45.890625 
Q 41.09375 44.796875 43.296875 43.09375 
Q 45.5 41.40625 47.09375 39 
L 47.296875 39 
L 47.296875 75.59375 
L 53.90625 75.59375 
z
" id="Avenir-Book-100"/>
     <path d="M 20.40625 40.40625 
L 24.09375 40.40625 
Q 27.203125 40.40625 30.046875 41.09375 
Q 32.90625 41.796875 35 43.34375 
Q 37.09375 44.90625 38.34375 47.40625 
Q 39.59375 49.90625 39.59375 53.40625 
Q 39.59375 59.09375 36.140625 62.25 
Q 32.703125 65.40625 26.5 65.40625 
Q 22 65.40625 18.59375 63.40625 
Q 15.203125 61.40625 13 57.59375 
L 6.703125 60.796875 
Q 9.90625 66.5 14.84375 69.25 
Q 19.796875 72 26.296875 72 
Q 30.5 72 34.203125 70.796875 
Q 37.90625 69.59375 40.703125 67.25 
Q 43.5 64.90625 45.140625 61.453125 
Q 46.796875 58 46.796875 53.59375 
Q 46.796875 50.703125 45.84375 48.09375 
Q 44.90625 45.5 43.25 43.390625 
Q 41.59375 41.296875 39.390625 39.75 
Q 37.203125 38.203125 34.796875 37.40625 
L 35.09375 37.203125 
Q 38.09375 36.59375 40.59375 34.9375 
Q 43.09375 33.296875 44.890625 30.890625 
Q 46.703125 28.5 47.703125 25.5 
Q 48.703125 22.5 48.703125 19.203125 
Q 48.703125 14.296875 46.890625 10.5 
Q 45.09375 6.703125 42 4.09375 
Q 38.90625 1.5 34.796875 0.140625 
Q 30.703125 -1.203125 26.09375 -1.203125 
Q 18.296875 -1.203125 12.5 2.1875 
Q 6.703125 5.59375 3.796875 13.09375 
L 11.40625 15.40625 
Q 13.203125 10.296875 16.75 7.84375 
Q 20.296875 5.40625 26.703125 5.40625 
Q 29.703125 5.40625 32.390625 6.40625 
Q 35.09375 7.40625 37.140625 9.25 
Q 39.203125 11.09375 40.34375 13.6875 
Q 41.5 16.296875 41.5 19.40625 
Q 41.5 23.40625 40 26.15625 
Q 38.5 28.90625 36 30.59375 
Q 33.5 32.296875 30.25 33.046875 
Q 27 33.796875 23.5 33.796875 
L 20.40625 33.796875 
z
" id="Avenir-Book-51"/>
     <path d="M 12 20.703125 
Q 12 17.296875 13.140625 14.5 
Q 14.296875 11.703125 16.390625 9.640625 
Q 18.5 7.59375 21.390625 6.5 
Q 24.296875 5.40625 27.796875 5.40625 
Q 31.296875 5.40625 34.1875 6.5 
Q 37.09375 7.59375 39.1875 9.640625 
Q 41.296875 11.703125 42.4375 14.5 
Q 43.59375 17.296875 43.59375 20.703125 
Q 43.59375 24.09375 42.4375 26.890625 
Q 41.296875 29.703125 39.1875 31.703125 
Q 37.09375 33.703125 34.1875 34.84375 
Q 31.296875 36 27.796875 36 
Q 24.296875 36 21.390625 34.84375 
Q 18.5 33.703125 16.390625 31.703125 
Q 14.296875 29.703125 13.140625 26.890625 
Q 12 24.09375 12 20.703125 
z
M 19.203125 40.40625 
L 19.40625 40.203125 
Q 21.09375 41.40625 23.9375 42 
Q 26.796875 42.59375 29.203125 42.59375 
Q 33.796875 42.59375 37.75 40.9375 
Q 41.703125 39.296875 44.59375 36.390625 
Q 47.5 33.5 49.140625 29.5 
Q 50.796875 25.5 50.796875 20.703125 
Q 50.796875 15.796875 49.09375 11.796875 
Q 47.40625 7.796875 44.296875 4.890625 
Q 41.203125 2 37 0.390625 
Q 32.796875 -1.203125 27.796875 -1.203125 
Q 22.796875 -1.203125 18.59375 0.390625 
Q 14.40625 2 11.296875 4.890625 
Q 8.203125 7.796875 6.5 11.796875 
Q 4.796875 15.796875 4.796875 20.703125 
Q 4.796875 26.59375 6.546875 31 
Q 8.296875 35.40625 10.90625 39.703125 
L 30 70.796875 
L 38.5 70.796875 
z
" id="Avenir-Book-54"/>
     <path d="M 49.90625 23.40625 
Q 49.90625 27.296875 48.65625 30.6875 
Q 47.40625 34.09375 45.09375 36.59375 
Q 42.796875 39.09375 39.546875 40.546875 
Q 36.296875 42 32.203125 42 
Q 28.09375 42 24.6875 40.546875 
Q 21.296875 39.09375 18.796875 36.59375 
Q 16.296875 34.09375 14.890625 30.6875 
Q 13.5 27.296875 13.5 23.40625 
Q 13.5 19.5 14.890625 16.09375 
Q 16.296875 12.703125 18.796875 10.203125 
Q 21.296875 7.703125 24.6875 6.25 
Q 28.09375 4.796875 32.203125 4.796875 
Q 36.296875 4.796875 39.546875 6.25 
Q 42.796875 7.703125 45.09375 10.203125 
Q 47.40625 12.703125 48.65625 16.09375 
Q 49.90625 19.5 49.90625 23.40625 
z
M 7.203125 75.59375 
L 13.796875 75.59375 
L 13.796875 39 
L 14 39 
Q 15.59375 41.40625 17.796875 43.09375 
Q 20 44.796875 22.390625 45.890625 
Q 24.796875 47 27.34375 47.5 
Q 29.90625 48 32.203125 48 
Q 37.703125 48 42.25 46.140625 
Q 46.796875 44.296875 50.09375 41 
Q 53.40625 37.703125 55.25 33.203125 
Q 57.09375 28.703125 57.09375 23.40625 
Q 57.09375 18.09375 55.25 13.59375 
Q 53.40625 9.09375 50.09375 5.796875 
Q 46.796875 2.5 42.25 0.640625 
Q 37.703125 -1.203125 32.203125 -1.203125 
Q 29.90625 -1.203125 27.34375 -0.703125 
Q 24.796875 -0.203125 22.390625 0.890625 
Q 20 2 17.796875 3.703125 
Q 15.59375 5.40625 14 7.796875 
L 13.796875 7.796875 
L 13.796875 0 
L 7.203125 0 
z
" id="Avenir-Book-98"/>
    </defs>
    <g transform="translate(160.699062 28.56)scale(0.28 -0.28)">
     <use xlink:href="#Avenir-Book-99"/>
     <use x="48.199997" xlink:href="#Avenir-Book-99"/>
     <use x="96.399994" xlink:href="#Avenir-Book-100"/>
     <use x="157.499985" xlink:href="#Avenir-Book-99"/>
     <use x="205.699982" xlink:href="#Avenir-Book-49"/>
     <use x="261.299973" xlink:href="#Avenir-Book-51"/>
     <use x="316.899963" xlink:href="#Avenir-Book-54"/>
     <use x="372.499954" xlink:href="#Avenir-Book-98"/>
    </g>
   </g>
  </g>
 </g>
 <defs>
  <clipPath id="pef67f49f13">
   <rect height="217.44" width="334.8" x="54" y="34.56"/>
  </clipPath>
 </defs>
</svg>
