<?xml version="1.0" encoding="utf-8" standalone="no"?>
<!DOCTYPE svg PUBLIC "-//W3C//DTD SVG 1.1//EN"
  "http://www.w3.org/Graphics/SVG/1.1/DTD/svg11.dtd">
<!-- Created with matplotlib (https://matplotlib.org/) -->
<svg height="288pt" version="1.1" viewBox="0 0 432 288" width="432pt" xmlns="http://www.w3.org/2000/svg" xmlns:xlink="http://www.w3.org/1999/xlink">
 <defs>
  <style type="text/css">
*{stroke-linecap:butt;stroke-linejoin:round;}
  </style>
 </defs>
 <g id="figure_1">
  <g id="patch_1">
   <path d="M 0 288 
L 432 288 
L 432 0 
L 0 0 
z
" style="fill:none;"/>
  </g>
  <g id="axes_1">
   <g id="patch_2">
    <path d="M 54 252 
L 388.8 252 
L 388.8 34.56 
L 54 34.56 
z
" style="fill:none;"/>
   </g>
   <g id="patch_3">
    <path clip-path="url(#p6777aa7699)" d="M 69.218182 143.28 
L 98.554436 143.28 
L 98.554436 143.28 
L 69.218182 143.28 
z
" style="fill:#b400ff;"/>
   </g>
   <g id="patch_4">
    <path clip-path="url(#p6777aa7699)" d="M 105.888499 143.28 
L 135.224754 143.28 
L 135.224754 143.28 
L 105.888499 143.28 
z
" style="fill:#b400ff;"/>
   </g>
   <g id="patch_5">
    <path clip-path="url(#p6777aa7699)" d="M 142.558817 143.28 
L 171.895071 143.28 
L 171.895071 143.28 
L 142.558817 143.28 
z
" style="fill:#b400ff;"/>
   </g>
   <g id="patch_6">
    <path clip-path="url(#p6777aa7699)" d="M 179.229135 143.28 
L 208.565389 143.28 
L 208.565389 143.28 
L 179.229135 143.28 
z
" style="fill:#b400ff;"/>
   </g>
   <g id="patch_7">
    <path clip-path="url(#p6777aa7699)" d="M 234.234611 143.28 
L 263.570865 143.28 
L 263.570865 143.28 
L 234.234611 143.28 
z
" style="fill:#3232ff;"/>
   </g>
   <g id="patch_8">
    <path clip-path="url(#p6777aa7699)" d="M 270.904929 143.28 
L 300.241183 143.28 
L 300.241183 143.28 
L 270.904929 143.28 
z
" style="fill:#3232ff;"/>
   </g>
   <g id="patch_9">
    <path clip-path="url(#p6777aa7699)" d="M 307.575246 143.28 
L 336.911501 143.28 
L 336.911501 143.28 
L 307.575246 143.28 
z
" style="fill:#3232ff;"/>
   </g>
   <g id="patch_10">
    <path clip-path="url(#p6777aa7699)" d="M 344.245564 143.28 
L 373.581818 143.28 
L 373.581818 143.28 
L 344.245564 143.28 
z
" style="fill:#3232ff;"/>
   </g>
   <g id="matplotlib.axis_1">
    <g id="xtick_1">
     <g id="line2d_1">
      <defs>
       <path d="M 0 0 
L 0 3.5 
" id="m015449d16d" style="stroke:#000000;stroke-width:0.8;"/>
      </defs>
      <g>
       <use style="stroke:#000000;stroke-width:0.8;" x="138.891785" xlink:href="#m015449d16d" y="252"/>
      </g>
     </g>
     <g id="text_1">
      <!-- UV -->
      <defs>
       <path d="M 60.203125 26.40625 
Q 60.203125 22 59.140625 17.046875 
Q 58.09375 12.09375 55.1875 7.890625 
Q 52.296875 3.703125 47.25 0.953125 
Q 42.203125 -1.796875 34.296875 -1.796875 
Q 26.296875 -1.796875 21.296875 0.953125 
Q 16.296875 3.703125 13.390625 7.890625 
Q 10.5 12.09375 9.453125 17.046875 
Q 8.40625 22 8.40625 26.40625 
L 8.40625 70.796875 
L 15.59375 70.796875 
L 15.59375 27.203125 
Q 15.59375 22.09375 16.59375 18.4375 
Q 17.59375 14.796875 19.25 12.296875 
Q 20.90625 9.796875 22.953125 8.34375 
Q 25 6.90625 27.046875 6.09375 
Q 29.09375 5.296875 31 5.046875 
Q 32.90625 4.796875 34.296875 4.796875 
Q 35.59375 4.796875 37.546875 5.046875 
Q 39.5 5.296875 41.546875 6.09375 
Q 43.59375 6.90625 45.640625 8.34375 
Q 47.703125 9.796875 49.34375 12.296875 
Q 51 14.796875 52 18.4375 
Q 53 22.09375 53 27.203125 
L 53 70.796875 
L 60.203125 70.796875 
z
" id="Avenir-Book-85"/>
       <path d="M 30.203125 10.796875 
L 30.40625 10.796875 
L 53.59375 70.796875 
L 61.40625 70.796875 
L 33.796875 0 
L 26.59375 0 
L -0.296875 70.796875 
L 7.703125 70.796875 
z
" id="Avenir-Book-86"/>
      </defs>
      <g transform="translate(127.21991 272.606875)scale(0.18 -0.18)">
       <use xlink:href="#Avenir-Book-85"/>
       <use x="68.599991" xlink:href="#Avenir-Book-86"/>
      </g>
     </g>
    </g>
    <g id="xtick_2">
     <g id="line2d_2">
      <g>
       <use style="stroke:#000000;stroke-width:0.8;" x="303.908215" xlink:href="#m015449d16d" y="252"/>
      </g>
     </g>
     <g id="text_2">
      <!-- S -->
      <defs>
       <path d="M 43.09375 59.09375 
Q 38.40625 66 29.40625 66 
Q 26.59375 66 23.890625 65.25 
Q 21.203125 64.5 19.046875 62.953125 
Q 16.90625 61.40625 15.59375 58.953125 
Q 14.296875 56.5 14.296875 53.203125 
Q 14.296875 48.40625 17 45.75 
Q 19.703125 43.09375 23.703125 41.390625 
Q 27.703125 39.703125 32.453125 38.34375 
Q 37.203125 37 41.203125 34.75 
Q 45.203125 32.5 47.890625 28.796875 
Q 50.59375 25.09375 50.59375 18.703125 
Q 50.59375 13.90625 48.546875 10.046875 
Q 46.5 6.203125 43.140625 3.59375 
Q 39.796875 1 35.640625 -0.390625 
Q 31.5 -1.796875 27.296875 -1.796875 
Q 20.796875 -1.796875 14.9375 0.640625 
Q 9.09375 3.09375 5 8.703125 
L 11.5 13.40625 
Q 13.796875 9.5 17.890625 7.140625 
Q 22 4.796875 27.59375 4.796875 
Q 30.296875 4.796875 33 5.640625 
Q 35.703125 6.5 37.84375 8.140625 
Q 40 9.796875 41.390625 12.1875 
Q 42.796875 14.59375 42.796875 17.703125 
Q 42.796875 21.40625 41.25 23.84375 
Q 39.703125 26.296875 37.140625 27.9375 
Q 34.59375 29.59375 31.34375 30.6875 
Q 28.09375 31.796875 24.640625 32.890625 
Q 21.203125 34 17.953125 35.390625 
Q 14.703125 36.796875 12.140625 38.9375 
Q 9.59375 41.09375 8.046875 44.34375 
Q 6.5 47.59375 6.5 52.5 
Q 6.5 57.59375 8.453125 61.390625 
Q 10.40625 65.203125 13.65625 67.703125 
Q 16.90625 70.203125 21 71.390625 
Q 25.09375 72.59375 29.40625 72.59375 
Q 35.40625 72.59375 40.296875 70.6875 
Q 45.203125 68.796875 49.40625 64 
z
" id="Avenir-Book-83"/>
      </defs>
      <g transform="translate(298.904777 272.606875)scale(0.18 -0.18)">
       <use xlink:href="#Avenir-Book-83"/>
      </g>
     </g>
    </g>
   </g>
   <g id="matplotlib.axis_2">
    <g id="ytick_1">
     <g id="line2d_3">
      <defs>
       <path d="M 0 0 
L -3.5 0 
" id="mbb2c49e96e" style="stroke:#000000;stroke-width:0.8;"/>
      </defs>
      <g>
       <use style="stroke:#000000;stroke-width:0.8;" x="54" xlink:href="#mbb2c49e96e" y="222.349091"/>
      </g>
     </g>
     <g id="text_3">
      <!-- −4 -->
      <defs>
       <path d="M 58.796875 27.296875 
L 7.796875 27.296875 
L 7.796875 33.296875 
L 58.796875 33.296875 
z
" id="Avenir-Book-8722"/>
       <path d="M 34.40625 63.59375 
L 34.203125 63.59375 
L 9.796875 23.40625 
L 34.40625 23.40625 
z
M 41.59375 23.40625 
L 51.796875 23.40625 
L 51.796875 16.796875 
L 41.59375 16.796875 
L 41.59375 0 
L 34.40625 0 
L 34.40625 16.796875 
L 3.796875 16.796875 
L 3.796875 25 
L 32.40625 70.796875 
L 41.59375 70.796875 
z
" id="Avenir-Book-52"/>
      </defs>
      <g transform="translate(25.00625 229.152528)scale(0.18 -0.18)">
       <use xlink:href="#Avenir-Book-8722"/>
       <use x="66.599991" xlink:href="#Avenir-Book-52"/>
      </g>
     </g>
    </g>
    <g id="ytick_2">
     <g id="line2d_4">
      <g>
       <use style="stroke:#000000;stroke-width:0.8;" x="54" xlink:href="#mbb2c49e96e" y="182.814545"/>
      </g>
     </g>
     <g id="text_4">
      <!-- −2 -->
      <defs>
       <path d="M 49.796875 0 
L 4.796875 0 
L 4.796875 8.296875 
L 33 37 
Q 34.59375 38.59375 36.1875 40.390625 
Q 37.796875 42.203125 39.09375 44.203125 
Q 40.40625 46.203125 41.203125 48.390625 
Q 42 50.59375 42 53 
Q 42 55.90625 40.953125 58.203125 
Q 39.90625 60.5 38 62.09375 
Q 36.09375 63.703125 33.59375 64.546875 
Q 31.09375 65.40625 28.296875 65.40625 
Q 22.90625 65.40625 19.09375 62.40625 
Q 15.296875 59.40625 14.203125 54.296875 
L 6.59375 55.09375 
Q 8.09375 63 13.84375 67.5 
Q 19.59375 72 27.796875 72 
Q 32.09375 72 35.9375 70.84375 
Q 39.796875 69.703125 42.75 67.390625 
Q 45.703125 65.09375 47.453125 61.640625 
Q 49.203125 58.203125 49.203125 53.59375 
Q 49.203125 49.5 47.953125 46.09375 
Q 46.703125 42.703125 44.703125 39.703125 
Q 42.703125 36.703125 40.140625 34 
Q 37.59375 31.296875 34.90625 28.703125 
L 12.59375 6.59375 
L 49.796875 6.59375 
z
" id="Avenir-Book-50"/>
      </defs>
      <g transform="translate(25.00625 189.617983)scale(0.18 -0.18)">
       <use xlink:href="#Avenir-Book-8722"/>
       <use x="66.599991" xlink:href="#Avenir-Book-50"/>
      </g>
     </g>
    </g>
    <g id="ytick_3">
     <g id="line2d_5">
      <g>
       <use style="stroke:#000000;stroke-width:0.8;" x="54" xlink:href="#mbb2c49e96e" y="143.28"/>
      </g>
     </g>
     <g id="text_5">
      <!-- 0 -->
      <defs>
       <path d="M 27.796875 65.40625 
Q 22 65.40625 18.640625 62.296875 
Q 15.296875 59.203125 13.59375 54.59375 
Q 11.90625 50 11.453125 44.796875 
Q 11 39.59375 11 35.40625 
Q 11 31.203125 11.453125 26 
Q 11.90625 20.796875 13.59375 16.1875 
Q 15.296875 11.59375 18.640625 8.5 
Q 22 5.40625 27.796875 5.40625 
Q 33.59375 5.40625 36.9375 8.5 
Q 40.296875 11.59375 42 16.1875 
Q 43.703125 20.796875 44.140625 26 
Q 44.59375 31.203125 44.59375 35.40625 
Q 44.59375 39.59375 44.140625 44.796875 
Q 43.703125 50 42 54.59375 
Q 40.296875 59.203125 36.9375 62.296875 
Q 33.59375 65.40625 27.796875 65.40625 
z
M 27.796875 72 
Q 35.40625 72 40.09375 68.5 
Q 44.796875 65 47.390625 59.59375 
Q 50 54.203125 50.890625 47.75 
Q 51.796875 41.296875 51.796875 35.40625 
Q 51.796875 29.5 50.890625 23.046875 
Q 50 16.59375 47.390625 11.1875 
Q 44.796875 5.796875 40.09375 2.296875 
Q 35.40625 -1.203125 27.796875 -1.203125 
Q 20.203125 -1.203125 15.5 2.296875 
Q 10.796875 5.796875 8.1875 11.1875 
Q 5.59375 16.59375 4.6875 23.046875 
Q 3.796875 29.5 3.796875 35.40625 
Q 3.796875 41.296875 4.6875 47.75 
Q 5.59375 54.203125 8.1875 59.59375 
Q 10.796875 65 15.5 68.5 
Q 20.203125 72 27.796875 72 
z
" id="Avenir-Book-48"/>
      </defs>
      <g transform="translate(36.993125 150.083438)scale(0.18 -0.18)">
       <use xlink:href="#Avenir-Book-48"/>
      </g>
     </g>
    </g>
    <g id="ytick_4">
     <g id="line2d_6">
      <g>
       <use style="stroke:#000000;stroke-width:0.8;" x="54" xlink:href="#mbb2c49e96e" y="103.745455"/>
      </g>
     </g>
     <g id="text_6">
      <!-- 2 -->
      <g transform="translate(36.993125 110.548892)scale(0.18 -0.18)">
       <use xlink:href="#Avenir-Book-50"/>
      </g>
     </g>
    </g>
    <g id="ytick_5">
     <g id="line2d_7">
      <g>
       <use style="stroke:#000000;stroke-width:0.8;" x="54" xlink:href="#mbb2c49e96e" y="64.210909"/>
      </g>
     </g>
     <g id="text_7">
      <!-- 4 -->
      <g transform="translate(36.993125 71.014347)scale(0.18 -0.18)">
       <use xlink:href="#Avenir-Book-52"/>
      </g>
     </g>
    </g>
    <g id="text_8">
     <!-- norm. counts -->
     <defs>
      <path d="M 13.5 46.796875 
Q 13.703125 44.90625 13.75 43.046875 
Q 13.796875 41.203125 13.796875 39.296875 
L 14 39.296875 
Q 15.09375 41.203125 16.796875 42.796875 
Q 18.5 44.40625 20.59375 45.546875 
Q 22.703125 46.703125 25.046875 47.34375 
Q 27.40625 48 29.703125 48 
Q 38.703125 48 43 43.25 
Q 47.296875 38.5 47.296875 29.703125 
L 47.296875 0 
L 40.703125 0 
L 40.703125 25.90625 
Q 40.703125 33.703125 38 37.84375 
Q 35.296875 42 28 42 
Q 27.5 42 25.203125 41.59375 
Q 22.90625 41.203125 20.34375 39.390625 
Q 17.796875 37.59375 15.796875 34 
Q 13.796875 30.40625 13.796875 24 
L 13.796875 0 
L 7.203125 0 
L 7.203125 36.5 
Q 7.203125 38.40625 7.046875 41.296875 
Q 6.90625 44.203125 6.703125 46.796875 
z
" id="Avenir-Book-110"/>
      <path d="M 47.296875 23.40625 
Q 47.296875 27.296875 46.046875 30.6875 
Q 44.796875 34.09375 42.5 36.59375 
Q 40.203125 39.09375 36.953125 40.546875 
Q 33.703125 42 29.59375 42 
Q 25.5 42 22.25 40.546875 
Q 19 39.09375 16.75 36.59375 
Q 14.5 34.09375 13.25 30.6875 
Q 12 27.296875 12 23.40625 
Q 12 19.5 13.25 16.09375 
Q 14.5 12.703125 16.75 10.203125 
Q 19 7.703125 22.25 6.25 
Q 25.5 4.796875 29.59375 4.796875 
Q 33.703125 4.796875 36.953125 6.25 
Q 40.203125 7.703125 42.5 10.203125 
Q 44.796875 12.703125 46.046875 16.09375 
Q 47.296875 19.5 47.296875 23.40625 
z
M 54.5 23.40625 
Q 54.5 18.09375 52.640625 13.59375 
Q 50.796875 9.09375 47.5 5.796875 
Q 44.203125 2.5 39.640625 0.640625 
Q 35.09375 -1.203125 29.59375 -1.203125 
Q 24.203125 -1.203125 19.640625 0.640625 
Q 15.09375 2.5 11.796875 5.796875 
Q 8.5 9.09375 6.640625 13.59375 
Q 4.796875 18.09375 4.796875 23.40625 
Q 4.796875 28.703125 6.640625 33.203125 
Q 8.5 37.703125 11.796875 41 
Q 15.09375 44.296875 19.640625 46.140625 
Q 24.203125 48 29.59375 48 
Q 35.09375 48 39.640625 46.140625 
Q 44.203125 44.296875 47.5 41 
Q 50.796875 37.703125 52.640625 33.203125 
Q 54.5 28.703125 54.5 23.40625 
z
" id="Avenir-Book-111"/>
      <path d="M 7.90625 32.203125 
Q 7.90625 35.296875 7.75 38.5 
Q 7.59375 41.703125 7.5 46.796875 
L 14 46.796875 
L 14 38.09375 
L 14.203125 38.09375 
Q 14.90625 40 16.203125 41.75 
Q 17.5 43.5 19.34375 44.890625 
Q 21.203125 46.296875 23.640625 47.140625 
Q 26.09375 48 29.203125 48 
Q 32 48 34.09375 47.40625 
L 32.796875 40.90625 
Q 31.5 41.40625 29 41.40625 
Q 25.203125 41.40625 22.5 39.953125 
Q 19.796875 38.5 18 36.25 
Q 16.203125 34 15.34375 31.390625 
Q 14.5 28.796875 14.5 26.40625 
L 14.5 0 
L 7.90625 0 
z
" id="Avenir-Book-114"/>
      <path d="M 7.203125 36.40625 
Q 7.203125 39 7.046875 41.59375 
Q 6.90625 44.203125 6.703125 46.796875 
L 13.796875 46.796875 
L 13.796875 39.703125 
L 14 39.703125 
Q 16.40625 43.796875 20.65625 45.890625 
Q 24.90625 48 29.09375 48 
Q 31 48 33.140625 47.59375 
Q 35.296875 47.203125 37.296875 46.140625 
Q 39.296875 45.09375 41.046875 43.1875 
Q 42.796875 41.296875 44 38.296875 
Q 46 42.796875 50.34375 45.390625 
Q 54.703125 48 59.40625 48 
Q 68.40625 48 72.703125 43.25 
Q 77 38.5 77 29.703125 
L 77 0 
L 70.40625 0 
L 70.40625 27.296875 
Q 70.40625 34.40625 67.90625 38.203125 
Q 65.40625 42 58.59375 42 
Q 54.90625 42 52.40625 40.546875 
Q 49.90625 39.09375 48.34375 36.6875 
Q 46.796875 34.296875 46.09375 31.25 
Q 45.40625 28.203125 45.40625 24.90625 
L 45.40625 0 
L 38.796875 0 
L 38.796875 27.296875 
Q 38.796875 34.40625 36.296875 38.203125 
Q 33.796875 42 27 42 
Q 26.40625 42 24.25 41.59375 
Q 22.09375 41.203125 19.796875 39.390625 
Q 17.5 37.59375 15.640625 34 
Q 13.796875 30.40625 13.796875 24 
L 13.796875 0 
L 7.203125 0 
z
" id="Avenir-Book-109"/>
      <path d="M 19.296875 4.796875 
Q 19.296875 2.703125 17.796875 1.046875 
Q 16.296875 -0.59375 13.90625 -0.59375 
Q 11.5 -0.59375 10 1.046875 
Q 8.5 2.703125 8.5 4.796875 
Q 8.5 6.90625 10 8.546875 
Q 11.5 10.203125 13.90625 10.203125 
Q 16.296875 10.203125 17.796875 8.546875 
Q 19.296875 6.90625 19.296875 4.796875 
z
" id="Avenir-Book-46"/>
      <path id="Avenir-Book-32"/>
      <path d="M 41.296875 35.796875 
Q 39.59375 38.40625 36.546875 40.203125 
Q 33.5 42 29.59375 42 
Q 25.5 42.09375 22.25 40.6875 
Q 19 39.296875 16.703125 36.796875 
Q 14.40625 34.296875 13.203125 30.84375 
Q 12 27.40625 12 23.40625 
Q 12 19.40625 13.203125 15.953125 
Q 14.40625 12.5 16.703125 10 
Q 19 7.5 22.25 6.09375 
Q 25.5 4.703125 29.59375 4.796875 
Q 33.5 4.796875 36.546875 6.59375 
Q 39.59375 8.40625 41.296875 11 
L 46.703125 6.90625 
Q 43.203125 2.796875 38.796875 0.84375 
Q 34.40625 -1.09375 29.59375 -1.203125 
Q 23.90625 -1.296875 19.296875 0.546875 
Q 14.703125 2.40625 11.453125 5.703125 
Q 8.203125 9 6.5 13.546875 
Q 4.796875 18.09375 4.796875 23.40625 
Q 4.796875 28.703125 6.5 33.25 
Q 8.203125 37.796875 11.453125 41.09375 
Q 14.703125 44.40625 19.296875 46.25 
Q 23.90625 48.09375 29.59375 48 
Q 34.40625 47.90625 38.796875 45.953125 
Q 43.203125 44 46.703125 39.90625 
z
" id="Avenir-Book-99"/>
      <path d="M 41 0 
Q 40.796875 1.90625 40.75 3.75 
Q 40.703125 5.59375 40.703125 7.5 
L 40.5 7.5 
Q 39.40625 5.59375 37.703125 4 
Q 36 2.40625 33.890625 1.25 
Q 31.796875 0.09375 29.4375 -0.546875 
Q 27.09375 -1.203125 24.796875 -1.203125 
Q 15.796875 -1.203125 11.5 3.546875 
Q 7.203125 8.296875 7.203125 17.09375 
L 7.203125 46.796875 
L 13.796875 46.796875 
L 13.796875 20.90625 
Q 13.796875 17 14.390625 14 
Q 15 11 16.453125 8.953125 
Q 17.90625 6.90625 20.34375 5.84375 
Q 22.796875 4.796875 26.5 4.796875 
Q 27 4.796875 29.296875 5.1875 
Q 31.59375 5.59375 34.140625 7.390625 
Q 36.703125 9.203125 38.703125 12.796875 
Q 40.703125 16.40625 40.703125 22.796875 
L 40.703125 46.796875 
L 47.296875 46.796875 
L 47.296875 10.296875 
Q 47.296875 8.40625 47.4375 5.5 
Q 47.59375 2.59375 47.796875 0 
z
" id="Avenir-Book-117"/>
      <path d="M 31.40625 40.796875 
L 17.90625 40.796875 
L 17.90625 13.203125 
Q 17.90625 10.59375 18.40625 8.9375 
Q 18.90625 7.296875 19.796875 6.390625 
Q 20.703125 5.5 21.953125 5.140625 
Q 23.203125 4.796875 24.703125 4.796875 
Q 26.40625 4.796875 28.203125 5.296875 
Q 30 5.796875 31.5 6.59375 
L 31.796875 0.5 
Q 28.09375 -1.203125 22.90625 -1.203125 
Q 21 -1.203125 18.953125 -0.703125 
Q 16.90625 -0.203125 15.203125 1.1875 
Q 13.5 2.59375 12.390625 5 
Q 11.296875 7.40625 11.296875 11.296875 
L 11.296875 40.796875 
L 1.40625 40.796875 
L 1.40625 46.796875 
L 11.296875 46.796875 
L 11.296875 60 
L 17.90625 60 
L 17.90625 46.796875 
L 31.40625 46.796875 
z
" id="Avenir-Book-116"/>
      <path d="M 32 35.703125 
Q 30.5 38.59375 28 40.296875 
Q 25.5 42 21.90625 42 
Q 20.203125 42 18.453125 41.59375 
Q 16.703125 41.203125 15.296875 40.34375 
Q 13.90625 39.5 13.046875 38.203125 
Q 12.203125 36.90625 12.203125 35 
Q 12.203125 31.703125 14.5 30.203125 
Q 16.796875 28.703125 21.40625 27.59375 
L 28.09375 26 
Q 33 24.90625 36.25 21.546875 
Q 39.5 18.203125 39.5 13.203125 
Q 39.5 9.40625 37.953125 6.65625 
Q 36.40625 3.90625 33.84375 2.15625 
Q 31.296875 0.40625 28 -0.390625 
Q 24.703125 -1.203125 21.296875 -1.203125 
Q 15.90625 -1.203125 11.25 0.84375 
Q 6.59375 2.90625 3.296875 7.90625 
L 9 11.796875 
Q 11 8.59375 14.046875 6.6875 
Q 17.09375 4.796875 21.296875 4.796875 
Q 23.296875 4.796875 25.296875 5.25 
Q 27.296875 5.703125 28.84375 6.640625 
Q 30.40625 7.59375 31.34375 9.09375 
Q 32.296875 10.59375 32.296875 12.59375 
Q 32.296875 16.09375 29.6875 17.640625 
Q 27.09375 19.203125 23.40625 20.09375 
L 17 21.59375 
Q 15.796875 21.90625 13.75 22.59375 
Q 11.703125 23.296875 9.75 24.6875 
Q 7.796875 26.09375 6.390625 28.34375 
Q 5 30.59375 5 33.90625 
Q 5 37.5 6.453125 40.203125 
Q 7.90625 42.90625 10.34375 44.59375 
Q 12.796875 46.296875 15.890625 47.140625 
Q 19 48 22.296875 48 
Q 27.203125 48 31.390625 46.09375 
Q 35.59375 44.203125 37.90625 39.59375 
z
" id="Avenir-Book-115"/>
     </defs>
     <g transform="translate(14.670937 207.452969)rotate(-90)scale(0.22 -0.22)">
      <use xlink:href="#Avenir-Book-110"/>
      <use x="55.599991" xlink:href="#Avenir-Book-111"/>
      <use x="114.899979" xlink:href="#Avenir-Book-114"/>
      <use x="148.115601" xlink:href="#Avenir-Book-109"/>
      <use x="233.315582" xlink:href="#Avenir-Book-46"/>
      <use x="261.11557" xlink:href="#Avenir-Book-32"/>
      <use x="288.915558" xlink:href="#Avenir-Book-99"/>
      <use x="337.115555" xlink:href="#Avenir-Book-111"/>
      <use x="396.415543" xlink:href="#Avenir-Book-117"/>
      <use x="452.015533" xlink:href="#Avenir-Book-110"/>
      <use x="507.615524" xlink:href="#Avenir-Book-116"/>
      <use x="540.815521" xlink:href="#Avenir-Book-115"/>
     </g>
    </g>
    <g id="text_9">
     <!-- 1e−2 -->
     <defs>
      <path d="M 12.40625 8.296875 
L 28.515625 8.296875 
L 28.515625 63.921875 
L 10.984375 60.40625 
L 10.984375 69.390625 
L 28.421875 72.90625 
L 38.28125 72.90625 
L 38.28125 8.296875 
L 54.390625 8.296875 
L 54.390625 0 
L 12.40625 0 
z
" id="DejaVuSans-49"/>
      <path d="M 56.203125 29.59375 
L 56.203125 25.203125 
L 14.890625 25.203125 
Q 15.484375 15.921875 20.484375 11.0625 
Q 25.484375 6.203125 34.421875 6.203125 
Q 39.59375 6.203125 44.453125 7.46875 
Q 49.3125 8.734375 54.109375 11.28125 
L 54.109375 2.78125 
Q 49.265625 0.734375 44.1875 -0.34375 
Q 39.109375 -1.421875 33.890625 -1.421875 
Q 20.796875 -1.421875 13.15625 6.1875 
Q 5.515625 13.8125 5.515625 26.8125 
Q 5.515625 40.234375 12.765625 48.109375 
Q 20.015625 56 32.328125 56 
Q 43.359375 56 49.78125 48.890625 
Q 56.203125 41.796875 56.203125 29.59375 
z
M 47.21875 32.234375 
Q 47.125 39.59375 43.09375 43.984375 
Q 39.0625 48.390625 32.421875 48.390625 
Q 24.90625 48.390625 20.390625 44.140625 
Q 15.875 39.890625 15.1875 32.171875 
z
" id="DejaVuSans-101"/>
      <path d="M 10.59375 35.5 
L 73.1875 35.5 
L 73.1875 27.203125 
L 10.59375 27.203125 
z
" id="DejaVuSans-8722"/>
      <path d="M 19.1875 8.296875 
L 53.609375 8.296875 
L 53.609375 0 
L 7.328125 0 
L 7.328125 8.296875 
Q 12.9375 14.109375 22.625 23.890625 
Q 32.328125 33.6875 34.8125 36.53125 
Q 39.546875 41.84375 41.421875 45.53125 
Q 43.3125 49.21875 43.3125 52.78125 
Q 43.3125 58.59375 39.234375 62.25 
Q 35.15625 65.921875 28.609375 65.921875 
Q 23.96875 65.921875 18.8125 64.3125 
Q 13.671875 62.703125 7.8125 59.421875 
L 7.8125 69.390625 
Q 13.765625 71.78125 18.9375 73 
Q 24.125 74.21875 28.421875 74.21875 
Q 39.75 74.21875 46.484375 68.546875 
Q 53.21875 62.890625 53.21875 53.421875 
Q 53.21875 48.921875 51.53125 44.890625 
Q 49.859375 40.875 45.40625 35.40625 
Q 44.1875 33.984375 37.640625 27.21875 
Q 31.109375 20.453125 19.1875 8.296875 
z
" id="DejaVuSans-50"/>
     </defs>
     <g transform="translate(54 31.56)scale(0.18 -0.18)">
      <use xlink:href="#DejaVuSans-49"/>
      <use x="63.623047" xlink:href="#DejaVuSans-101"/>
      <use x="125.146484" xlink:href="#DejaVuSans-8722"/>
      <use x="208.935547" xlink:href="#DejaVuSans-50"/>
     </g>
    </g>
   </g>
   <g id="patch_11">
    <path d="M 54 252 
L 54 34.56 
" style="fill:none;stroke:#000000;stroke-linecap:square;stroke-linejoin:miter;stroke-width:0.8;"/>
   </g>
   <g id="patch_12">
    <path d="M 54 252 
L 388.8 252 
" style="fill:none;stroke:#000000;stroke-linecap:square;stroke-linejoin:miter;stroke-width:0.8;"/>
   </g>
   <g id="text_10">
    <!-- ttr -->
    <g transform="translate(207.454688 28.56)scale(0.28 -0.28)">
     <use xlink:href="#Avenir-Book-116"/>
     <use x="33.199997" xlink:href="#Avenir-Book-116"/>
     <use x="66.399994" xlink:href="#Avenir-Book-114"/>
    </g>
   </g>
  </g>
 </g>
 <defs>
  <clipPath id="p6777aa7699">
   <rect height="217.44" width="334.8" x="54" y="34.56"/>
  </clipPath>
 </defs>
</svg>
