<svg version="1.1" xmlns="http://www.w3.org/2000/svg" xmlns:xlink="http://www.w3.org/1999/xlink" width="600" height="350" style="width: 600px; height: 350px;"><defs><clipPath id="rPwrpENCyOVy"><path fill="none" stroke="none" d=" M 28 27 L 595 27 L 595 326 L 28 326 L 28 27 Z"/></clipPath><clipPath id="yWRDPoVrobeD"><path fill="none" stroke="none" d=" M 28 27 L 595 27 L 595 326 L 28 326 L 28 27 Z"/></clipPath></defs><g><g transform="scale(1,1) translate(0.5,0.5)"><rect fill="#FFFFFF" stroke="none" x="0" y="0" width="600" height="350"/><g><rect fill="none" stroke="#e5e5e5" x="28" y="27" width="567" height="299" stroke-linejoin="bevel" stroke-miterlimit="10"/></g><g clip-path="url(#rPwrpENCyOVy)"><g><g/><g><path fill="none" stroke="#e5e5e5" paint-order="fill stroke markers" d=" M 28 266 L 595 266" stroke-linejoin="bevel" stroke-miterlimit="10"/><path fill="none" stroke="#e5e5e5" paint-order="fill stroke markers" d=" M 28 206 L 595 206" stroke-linejoin="bevel" stroke-miterlimit="10"/><path fill="none" stroke="#e5e5e5" paint-order="fill stroke markers" d=" M 28 147 L 595 147" stroke-linejoin="bevel" stroke-miterlimit="10"/><path fill="none" stroke="#e5e5e5" paint-order="fill stroke markers" d=" M 28 87 L 595 87" stroke-linejoin="bevel" stroke-miterlimit="10"/></g><g><path fill="none" stroke="none"/><rect fill="#3288bd" stroke="none" x="56.35000000000002" y="27" width="510.29999999999995" height="299"/><path fill="none" stroke="white" paint-order="fill stroke markers" d=" M 56.35000000000002 27 L 566.65 27 L 566.65 326 L 56.35000000000002 326 L 56.35000000000002 27 Z" stroke-linejoin="bevel" stroke-miterlimit="10"/></g></g></g><g clip-path="url(#yWRDPoVrobeD)"><g><g/><g><path fill="#ffffff" stroke="#e5e5e5" paint-order="fill stroke markers" d=" M 269.15625 37 L 353.84375 37 L 353.84375 77 L 269.15625 77 L 269.15625 37 Z" fill-opacity="0.95" stroke-linejoin="bevel" stroke-miterlimit="10" stroke-opacity="0.5"/><text fill="#444444" stroke="none" font-family="helvetica" font-size="10pt" font-style="normal" font-weight="normal" text-decoration="normal" x="304.15625" y="57" text-anchor="start" dominant-baseline="central">Apples</text><rect fill="#3288bd" stroke="none" x="281.15625" y="49" width="16" height="16"/><path fill="none" stroke="white" paint-order="fill stroke markers" d=" M 281.15625 49 L 297.15625 49 L 297.15625 65 L 281.15625 65 L 281.15625 49 Z" stroke-linejoin="bevel" stroke-miterlimit="10"/></g></g></g><g><g fill="#444444"><path fill="none" stroke="black" paint-order="fill stroke markers" d=" M 28 326 L 595 326" stroke-linejoin="bevel" stroke-miterlimit="10"/><path fill="" stroke="black" paint-order="fill stroke markers" d=" M 312 332 L 312 324" stroke-linejoin="bevel" stroke-miterlimit="10"/><g transform="translate(312,337) rotate(0,0,0)"><text fill="" stroke="none" font-family="helvetica" font-size="8pt" font-style="normal" font-weight="normal" text-decoration="normal" x="0" y="0" text-anchor="middle" dominant-baseline="hanging">Apples</text><g transform="rotate(0,0,0) translate(-312,-337)"/></g></g><g fill="#444444"><path fill="none" stroke="black" paint-order="fill stroke markers" d=" M 28 326 L 28 27" stroke-linejoin="bevel" stroke-miterlimit="10"/><path fill="none" stroke="black" paint-order="fill stroke markers" d=" M 22 326 L 30 326" stroke-linejoin="bevel" stroke-miterlimit="10"/><path fill="none" stroke="black" paint-order="fill stroke markers" d=" M 22 266 L 30 266" stroke-linejoin="bevel" stroke-miterlimit="10"/><path fill="none" stroke="black" paint-order="fill stroke markers" d=" M 22 206 L 30 206" stroke-linejoin="bevel" stroke-miterlimit="10"/><path fill="none" stroke="black" paint-order="fill stroke markers" d=" M 22 147 L 30 147" stroke-linejoin="bevel" stroke-miterlimit="10"/><path fill="none" stroke="black" paint-order="fill stroke markers" d=" M 22 87 L 30 87" stroke-linejoin="bevel" stroke-miterlimit="10"/><path fill="none" stroke="black" paint-order="fill stroke markers" d=" M 22 27 L 30 27" stroke-linejoin="bevel" stroke-miterlimit="10"/><path fill="none" stroke="black" paint-order="fill stroke markers" d=" M 24 326 L 28 326" stroke-linejoin="bevel" stroke-miterlimit="10"/><path fill="none" stroke="black" paint-order="fill stroke markers" d=" M 24 314 L 28 314" stroke-linejoin="bevel" stroke-miterlimit="10"/><path fill="none" stroke="black" paint-order="fill stroke markers" d=" M 24 302 L 28 302" stroke-linejoin="bevel" stroke-miterlimit="10"/><path fill="none" stroke="black" paint-order="fill stroke markers" d=" M 24 290 L 28 290" stroke-linejoin="bevel" stroke-miterlimit="10"/><path fill="none" stroke="black" paint-order="fill stroke markers" d=" M 24 278 L 28 278" stroke-linejoin="bevel" stroke-miterlimit="10"/><path fill="none" stroke="black" paint-order="fill stroke markers" d=" M 24 266 L 28 266" stroke-linejoin="bevel" stroke-miterlimit="10"/><path fill="none" stroke="black" paint-order="fill stroke markers" d=" M 24 254 L 28 254" stroke-linejoin="bevel" stroke-miterlimit="10"/><path fill="none" stroke="black" paint-order="fill stroke markers" d=" M 24 242 L 28 242" stroke-linejoin="bevel" stroke-miterlimit="10"/><path fill="none" stroke="black" paint-order="fill stroke markers" d=" M 24 230 L 28 230" stroke-linejoin="bevel" stroke-miterlimit="10"/><path fill="none" stroke="black" paint-order="fill stroke markers" d=" M 24 218 L 28 218" stroke-linejoin="bevel" stroke-miterlimit="10"/><path fill="none" stroke="black" paint-order="fill stroke markers" d=" M 24 206 L 28 206" stroke-linejoin="bevel" stroke-miterlimit="10"/><path fill="none" stroke="black" paint-order="fill stroke markers" d=" M 24 194 L 28 194" stroke-linejoin="bevel" stroke-miterlimit="10"/><path fill="none" stroke="black" paint-order="fill stroke markers" d=" M 24 182 L 28 182" stroke-linejoin="bevel" stroke-miterlimit="10"/><path fill="none" stroke="black" paint-order="fill stroke markers" d=" M 24 171 L 28 171" stroke-linejoin="bevel" stroke-miterlimit="10"/><path fill="none" stroke="black" paint-order="fill stroke markers" d=" M 24 159 L 28 159" stroke-linejoin="bevel" stroke-miterlimit="10"/><path fill="none" stroke="black" paint-order="fill stroke markers" d=" M 24 147 L 28 147" stroke-linejoin="bevel" stroke-miterlimit="10"/><path fill="none" stroke="black" paint-order="fill stroke markers" d=" M 24 135 L 28 135" stroke-linejoin="bevel" stroke-miterlimit="10"/><path fill="none" stroke="black" paint-order="fill stroke markers" d=" M 24 123 L 28 123" stroke-linejoin="bevel" stroke-miterlimit="10"/><path fill="none" stroke="black" paint-order="fill stroke markers" d=" M 24 111 L 28 111" stroke-linejoin="bevel" stroke-miterlimit="10"/><path fill="none" stroke="black" paint-order="fill stroke markers" d=" M 24 99 L 28 99" stroke-linejoin="bevel" stroke-miterlimit="10"/><path fill="none" stroke="black" paint-order="fill stroke markers" d=" M 24 87 L 28 87" stroke-linejoin="bevel" stroke-miterlimit="10"/><path fill="none" stroke="black" paint-order="fill stroke markers" d=" M 24 75 L 28 75" stroke-linejoin="bevel" stroke-miterlimit="10"/><path fill="none" stroke="black" paint-order="fill stroke markers" d=" M 24 63 L 28 63" stroke-linejoin="bevel" stroke-miterlimit="10"/><path fill="none" stroke="black" paint-order="fill stroke markers" d=" M 24 51 L 28 51" stroke-linejoin="bevel" stroke-miterlimit="10"/><path fill="none" stroke="black" paint-order="fill stroke markers" d=" M 24 39 L 28 39" stroke-linejoin="bevel" stroke-miterlimit="10"/><path fill="" stroke="black" paint-order="fill stroke markers" d=" M 24 27 L 28 27" stroke-linejoin="bevel" stroke-miterlimit="10"/><g transform="translate(17,326) rotate(0,0,0)"><text fill="" stroke="none" font-family="helvetica" font-size="8pt" font-style="normal" font-weight="normal" text-decoration="normal" x="0" y="0" text-anchor="end" dominant-baseline="central">0</text><g transform="rotate(0,0,0) translate(-17,-326) translate(17,266) rotate(0,0,0)"><text fill="" stroke="none" font-family="helvetica" font-size="8pt" font-style="normal" font-weight="normal" text-decoration="normal" x="0" y="0" text-anchor="end" dominant-baseline="central">0.2</text><g transform="rotate(0,0,0) translate(-17,-266) translate(17,206) rotate(0,0,0)"><text fill="" stroke="none" font-family="helvetica" font-size="8pt" font-style="normal" font-weight="normal" text-decoration="normal" x="0" y="0" text-anchor="end" dominant-baseline="central">0.4</text><g transform="rotate(0,0,0) translate(-17,-206) translate(17,147) rotate(0,0,0)"><text fill="" stroke="none" font-family="helvetica" font-size="8pt" font-style="normal" font-weight="normal" text-decoration="normal" x="0" y="0" text-anchor="end" dominant-baseline="central">0.6</text><g transform="rotate(0,0,0) translate(-17,-147) translate(17,87) rotate(0,0,0)"><text fill="" stroke="none" font-family="helvetica" font-size="8pt" font-style="normal" font-weight="normal" text-decoration="normal" x="0" y="0" text-anchor="end" dominant-baseline="central">0.8</text><g transform="rotate(0,0,0) translate(-17,-87) translate(17,27) rotate(0,0,0)"><text fill="" stroke="none" font-family="helvetica" font-size="8pt" font-style="normal" font-weight="normal" text-decoration="normal" x="0" y="0" text-anchor="end" dominant-baseline="central">1</text><g transform="rotate(0,0,0) translate(-17,-27)"/></g></g></g></g></g></g></g><g fill="#444444"><path fill="" stroke="none" d=""/><g transform="translate(28,22)"><path fill="none" stroke="none"/><text fill="" stroke="none" font-family="helvetica" font-size="10pt" font-style="normal" font-weight="bold" text-decoration="normal" x="0" y="0" text-anchor="start" dominant-baseline="text-after-edge">Fruit Counts</text></g></g></g></g></g></svg>