<?xml version="1.0" encoding="utf-8" standalone="no"?>
<!DOCTYPE svg PUBLIC "-//W3C//DTD SVG 1.1//EN"
  "http://www.w3.org/Graphics/SVG/1.1/DTD/svg11.dtd">
<svg height="1296pt" version="1.1" viewBox="0 0 576 1296" width="576pt" xmlns="http://www.w3.org/2000/svg" xmlns:xlink="http://www.w3.org/1999/xlink">
 <metadata>
  <rdf:RDF xmlns:cc="http://creativecommons.org/ns#" xmlns:dc="http://purl.org/dc/elements/1.1/" xmlns:rdf="http://www.w3.org/1999/02/22-rdf-syntax-ns#">
   <cc:Work>
    <dc:type rdf:resource="http://purl.org/dc/dcmitype/StillImage"/>
    <dc:date>2021-07-06T22:26:38.237089</dc:date>
    <dc:format>image/svg+xml</dc:format>
    <dc:creator>
     <cc:Agent>
      <dc:title>Matplotlib v3.4.1, https://matplotlib.org/</dc:title>
     </cc:Agent>
    </dc:creator>
   </cc:Work>
  </rdf:RDF>
 </metadata>
 <defs>
  <style type="text/css">*{stroke-linecap:butt;stroke-linejoin:round;}</style>
 </defs>
 <g id="figure_1">
  <g id="patch_1">
   <path d="M 0 1296 
L 576 1296 
L 576 0 
L 0 0 
z
" style="fill:none;"/>
  </g>
  <g id="axes_1">
   <g id="patch_2">
    <path d="M 72 264.24 
L 518.4 264.24 
L 518.4 155.52 
L 72 155.52 
z
" style="fill:none;"/>
   </g>
   <g id="matplotlib.axis_1"/>
   <g id="matplotlib.axis_2">
    <g id="ytick_1">
     <g id="line2d_1">
      <defs>
       <path d="M 0 0 
L -3.5 0 
" id="m59f17806ff" style="stroke:#ffffff;stroke-width:0.8;"/>
      </defs>
      <g>
       <use style="fill:#ffffff;stroke:#ffffff;stroke-width:0.8;" x="72" xlink:href="#m59f17806ff" y="264.24"/>
      </g>
     </g>
     <g id="text_1">
      <!-- −1 -->
      <g style="fill:#ffffff;" transform="translate(29.61875 273.358125)scale(0.24 -0.24)">
       <defs>
        <path d="M 678 2272 
L 4684 2272 
L 4684 1741 
L 678 1741 
L 678 2272 
z
" id="DejaVuSans-2212" transform="scale(0.015625)"/>
        <path d="M 794 531 
L 1825 531 
L 1825 4091 
L 703 3866 
L 703 4441 
L 1819 4666 
L 2450 4666 
L 2450 531 
L 3481 531 
L 3481 0 
L 794 0 
L 794 531 
z
" id="DejaVuSans-31" transform="scale(0.015625)"/>
       </defs>
       <use xlink:href="#DejaVuSans-2212"/>
       <use x="83.789062" xlink:href="#DejaVuSans-31"/>
      </g>
     </g>
    </g>
    <g id="ytick_2">
     <g id="line2d_2">
      <g>
       <use style="fill:#ffffff;stroke:#ffffff;stroke-width:0.8;" x="72" xlink:href="#m59f17806ff" y="209.88"/>
      </g>
     </g>
     <g id="text_2">
      <!-- 0 -->
      <g style="fill:#ffffff;" transform="translate(49.73 218.998125)scale(0.24 -0.24)">
       <defs>
        <path d="M 2034 4250 
Q 1547 4250 1301 3770 
Q 1056 3291 1056 2328 
Q 1056 1369 1301 889 
Q 1547 409 2034 409 
Q 2525 409 2770 889 
Q 3016 1369 3016 2328 
Q 3016 3291 2770 3770 
Q 2525 4250 2034 4250 
z
M 2034 4750 
Q 2819 4750 3233 4129 
Q 3647 3509 3647 2328 
Q 3647 1150 3233 529 
Q 2819 -91 2034 -91 
Q 1250 -91 836 529 
Q 422 1150 422 2328 
Q 422 3509 836 4129 
Q 1250 4750 2034 4750 
z
" id="DejaVuSans-30" transform="scale(0.015625)"/>
       </defs>
       <use xlink:href="#DejaVuSans-30"/>
      </g>
     </g>
    </g>
    <g id="ytick_3">
     <g id="line2d_3">
      <g>
       <use style="fill:#ffffff;stroke:#ffffff;stroke-width:0.8;" x="72" xlink:href="#m59f17806ff" y="155.52"/>
      </g>
     </g>
     <g id="text_3">
      <!-- 1 -->
      <g style="fill:#ffffff;" transform="translate(49.73 164.638125)scale(0.24 -0.24)">
       <use xlink:href="#DejaVuSans-31"/>
      </g>
     </g>
    </g>
    <g id="text_4">
     <!-- $\Delta$F/F -->
     <g style="fill:#ffffff;" transform="translate(20.6275 236.04)rotate(-90)scale(0.24 -0.24)">
      <defs>
       <path d="M 2188 4044 
L 906 525 
L 3472 525 
L 2188 4044 
z
M 50 0 
L 1831 4666 
L 2547 4666 
L 4325 0 
L 50 0 
z
" id="DejaVuSans-394" transform="scale(0.015625)"/>
       <path d="M 628 4666 
L 3309 4666 
L 3309 4134 
L 1259 4134 
L 1259 2759 
L 3109 2759 
L 3109 2228 
L 1259 2228 
L 1259 0 
L 628 0 
L 628 4666 
z
" id="DejaVuSans-46" transform="scale(0.015625)"/>
       <path d="M 1625 4666 
L 2156 4666 
L 531 -594 
L 0 -594 
L 1625 4666 
z
" id="DejaVuSans-2f" transform="scale(0.015625)"/>
      </defs>
      <use transform="translate(0 0.09375)" xlink:href="#DejaVuSans-394"/>
      <use transform="translate(68.408203 0.09375)" xlink:href="#DejaVuSans-46"/>
      <use transform="translate(125.927734 0.09375)" xlink:href="#DejaVuSans-2f"/>
      <use transform="translate(159.619141 0.09375)" xlink:href="#DejaVuSans-46"/>
     </g>
    </g>
   </g>
   <g id="line2d_4">
    <path clip-path="url(#p48e7a405d9)" d="M 72 202.40021 
L 75.441797 206.193297 
L 78.883593 203.506679 
L 82.32539 203.277965 
L 85.767186 206.498742 
L 89.208983 202.516559 
L 92.650779 200.866556 
L 96.092576 205.59043 
L 99.534372 206.058835 
L 102.976169 207.375518 
L 106.417965 209.556868 
L 109.859762 203.981956 
L 113.301558 208.876615 
L 116.743355 209.882536 
L 120.185151 204.388331 
L 123.626948 208.084464 
L 127.068744 209.352966 
L 130.510541 210.415397 
L 133.952337 207.054082 
L 137.394134 207.168997 
L 140.83593 204.750768 
L 144.277727 202.166059 
L 147.719523 207.030031 
L 151.16132 205.754207 
L 154.603116 204.185827 
L 158.044913 207.504716 
L 161.486709 207.023332 
L 164.928506 206.870193 
L 168.370302 208.541179 
L 171.812099 209.533414 
L 175.253896 207.769894 
L 178.695692 207.849387 
L 182.137489 209.935589 
L 185.579285 208.505562 
L 189.021082 212.225804 
L 195.904675 209.96966 
L 199.346471 210.311062 
L 202.788268 209.80273 
L 206.230064 212.332275 
L 209.671861 205.95569 
L 213.113657 209.098488 
L 216.555454 211.108267 
L 219.99725 206.261444 
L 223.439047 209.116872 
L 226.880843 209.573739 
L 230.32264 211.066895 
L 233.764436 211.063066 
L 237.206233 210.646446 
L 240.648029 214.474369 
L 244.089826 209.618427 
L 247.531622 211.779161 
L 250.973419 210.286874 
L 254.415215 212.005282 
L 257.857012 211.710621 
L 261.298808 209.000297 
L 264.740605 210.894927 
L 268.182402 213.116209 
L 271.624198 208.608849 
L 275.065995 209.060583 
L 278.507791 207.193803 
L 281.949588 223.520702 
L 285.391384 234.850666 
L 288.833181 243.385121 
L 292.274977 245.354822 
L 295.716774 249.544375 
L 299.15857 251.910819 
L 302.600367 252.028269 
L 306.042163 252.875677 
L 309.48396 251.464486 
L 312.925756 251.5123 
L 316.367553 247.754327 
L 319.809349 251.757795 
L 323.251146 250.224649 
L 326.692942 252.361029 
L 330.134739 249.492925 
L 333.576535 251.005629 
L 340.460128 245.628789 
L 343.901925 244.494775 
L 347.343721 241.396356 
L 350.785518 236.743777 
L 354.227314 226.518825 
L 357.669111 221.412988 
L 361.110907 212.551043 
L 364.552704 217.891166 
L 367.994501 213.686801 
L 371.436297 213.237492 
L 374.878094 211.20539 
L 378.31989 215.989633 
L 381.761687 217.971365 
L 385.203483 212.239773 
L 388.64528 213.699167 
L 392.087076 213.414332 
L 395.528873 211.387834 
L 398.970669 214.099566 
L 402.412466 215.724597 
L 405.854262 214.832479 
L 409.296059 213.672502 
L 412.737855 211.504581 
L 416.179652 211.593847 
L 419.621448 213.807692 
L 423.063245 209.805742 
L 426.505041 208.498298 
L 429.946838 212.692517 
L 433.388634 214.790038 
L 436.830431 212.09548 
L 440.272227 214.164225 
L 443.714024 213.338694 
L 447.15582 209.622533 
L 450.597617 216.735578 
L 454.039413 213.720877 
L 460.923006 211.128312 
L 464.364803 214.543501 
L 467.8066 210.785805 
L 471.248396 211.479938 
L 474.690193 212.322161 
L 478.131989 214.627021 
L 481.573786 215.324873 
L 485.015582 213.618093 
L 488.457379 212.214229 
L 491.899175 217.002898 
L 495.340972 215.464766 
L 498.782768 213.158985 
L 502.224565 213.035386 
L 505.666361 215.131498 
L 509.108158 218.986573 
L 512.549954 213.439452 
L 515.991751 213.292681 
L 519.433547 211.474533 
L 522.875344 216.671856 
L 526.31714 213.195874 
L 529.758937 215.115843 
L 533.200733 213.2942 
L 536.64253 214.239265 
L 536.64253 214.239265 
" style="fill:none;stroke:#8dd3c7;stroke-linecap:square;stroke-width:1.5;"/>
   </g>
   <g id="line2d_5">
    <path clip-path="url(#p48e7a405d9)" d="M 282.070588 169.11 
L 308.329412 169.11 
" style="fill:none;stroke:#ffa500;stroke-linecap:square;stroke-width:6;"/>
   </g>
   <g id="patch_3">
    <path d="M 72 264.24 
L 72 155.52 
" style="fill:none;stroke:#ffffff;stroke-linecap:square;stroke-linejoin:miter;stroke-width:0.8;"/>
   </g>
  </g>
  <g id="axes_2">
   <g id="patch_4">
    <path d="M 72 438.192 
L 518.4 438.192 
L 518.4 329.472 
L 72 329.472 
z
" style="fill:none;"/>
   </g>
   <g id="matplotlib.axis_3"/>
   <g id="matplotlib.axis_4">
    <g id="ytick_4">
     <g id="line2d_6">
      <g>
       <use style="fill:#ffffff;stroke:#ffffff;stroke-width:0.8;" x="72" xlink:href="#m59f17806ff" y="438.192"/>
      </g>
     </g>
     <g id="text_5">
      <!-- −1 -->
      <g style="fill:#ffffff;" transform="translate(29.61875 447.310125)scale(0.24 -0.24)">
       <use xlink:href="#DejaVuSans-2212"/>
       <use x="83.789062" xlink:href="#DejaVuSans-31"/>
      </g>
     </g>
    </g>
    <g id="ytick_5">
     <g id="line2d_7">
      <g>
       <use style="fill:#ffffff;stroke:#ffffff;stroke-width:0.8;" x="72" xlink:href="#m59f17806ff" y="383.832"/>
      </g>
     </g>
     <g id="text_6">
      <!-- 0 -->
      <g style="fill:#ffffff;" transform="translate(49.73 392.950125)scale(0.24 -0.24)">
       <use xlink:href="#DejaVuSans-30"/>
      </g>
     </g>
    </g>
    <g id="ytick_6">
     <g id="line2d_8">
      <g>
       <use style="fill:#ffffff;stroke:#ffffff;stroke-width:0.8;" x="72" xlink:href="#m59f17806ff" y="329.472"/>
      </g>
     </g>
     <g id="text_7">
      <!-- 1 -->
      <g style="fill:#ffffff;" transform="translate(49.73 338.590125)scale(0.24 -0.24)">
       <use xlink:href="#DejaVuSans-31"/>
      </g>
     </g>
    </g>
    <g id="text_8">
     <!-- $\Delta$F/F -->
     <g style="fill:#ffffff;" transform="translate(20.6275 409.992)rotate(-90)scale(0.24 -0.24)">
      <use transform="translate(0 0.09375)" xlink:href="#DejaVuSans-394"/>
      <use transform="translate(68.408203 0.09375)" xlink:href="#DejaVuSans-46"/>
      <use transform="translate(125.927734 0.09375)" xlink:href="#DejaVuSans-2f"/>
      <use transform="translate(159.619141 0.09375)" xlink:href="#DejaVuSans-46"/>
     </g>
    </g>
   </g>
   <g id="line2d_9">
    <path clip-path="url(#p281de8893d)" d="M 72 377.097375 
L 75.441797 376.213597 
L 78.883593 377.524074 
L 82.32539 379.101224 
L 85.767186 376.96389 
L 89.208983 378.993711 
L 92.650779 379.741249 
L 96.092576 377.49385 
L 99.534372 374.480192 
L 102.976169 373.137743 
L 106.417965 379.785116 
L 109.859762 373.575377 
L 113.301558 374.842955 
L 116.743355 376.600646 
L 120.185151 380.154413 
L 123.626948 377.933853 
L 127.068744 377.63502 
L 130.510541 375.91259 
L 133.952337 380.962305 
L 137.394134 381.366471 
L 140.83593 379.461427 
L 144.277727 382.91257 
L 147.719523 382.817732 
L 151.16132 380.393955 
L 154.603116 383.779563 
L 158.044913 379.969863 
L 161.486709 380.355314 
L 164.928506 385.009706 
L 168.370302 381.115906 
L 171.812099 380.582419 
L 175.253896 380.984208 
L 178.695692 386.646391 
L 182.137489 385.965356 
L 185.579285 380.777951 
L 189.021082 380.932852 
L 192.462878 379.937844 
L 195.904675 382.277285 
L 199.346471 382.764724 
L 202.788268 382.478227 
L 206.230064 384.785743 
L 209.671861 386.618197 
L 213.113657 381.470503 
L 216.555454 389.047736 
L 219.99725 386.69577 
L 223.439047 386.825578 
L 226.880843 383.120818 
L 230.32264 389.586687 
L 233.764436 383.610146 
L 237.206233 381.636623 
L 240.648029 383.116322 
L 244.089826 385.565489 
L 247.531622 385.325757 
L 250.973419 390.205141 
L 254.415215 385.160985 
L 257.857012 383.388357 
L 261.298808 379.771575 
L 264.740605 385.946926 
L 268.182402 384.779602 
L 271.624198 385.30361 
L 275.065995 375.525981 
L 278.507791 386.154984 
L 281.949588 389.825017 
L 285.391384 396.385183 
L 288.833181 396.917222 
L 292.274977 400.873705 
L 295.716774 400.266173 
L 299.15857 401.693161 
L 302.600367 407.053511 
L 306.042163 407.420384 
L 309.48396 376.880806 
L 312.925756 379.889772 
L 316.367553 373.601688 
L 319.809349 375.118382 
L 323.251146 380.321549 
L 326.692942 377.525523 
L 330.134739 384.07361 
L 333.576535 380.461222 
L 337.018332 383.296911 
L 340.460128 383.67394 
L 343.901925 383.46796 
L 347.343721 375.967724 
L 350.785518 380.867663 
L 354.227314 382.298944 
L 357.669111 382.87441 
L 361.110907 389.210281 
L 364.552704 383.873968 
L 367.994501 383.091893 
L 371.436297 382.824652 
L 374.878094 381.281302 
L 378.31989 383.180542 
L 381.761687 379.770024 
L 385.203483 380.319518 
L 388.64528 372.662004 
L 392.087076 380.759866 
L 395.528873 380.474425 
L 398.970669 385.127422 
L 402.412466 388.255945 
L 405.854262 375.368412 
L 409.296059 380.360921 
L 412.737855 379.332147 
L 416.179652 374.825209 
L 419.621448 375.548372 
L 423.063245 380.675178 
L 426.505041 372.873928 
L 429.946838 385.91341 
L 433.388634 380.305204 
L 436.830431 377.695902 
L 440.272227 385.460644 
L 443.714024 384.614687 
L 447.15582 386.684456 
L 450.597617 380.507074 
L 454.039413 388.460273 
L 457.48121 382.51919 
L 460.923006 379.263864 
L 464.364803 385.098748 
L 467.8066 380.308109 
L 471.248396 380.752513 
L 474.690193 386.072042 
L 478.131989 387.111493 
L 481.573786 384.328332 
L 485.015582 382.21867 
L 488.457379 388.38178 
L 491.899175 381.468181 
L 495.340972 393.370084 
L 498.782768 381.524906 
L 502.224565 393.986939 
L 505.666361 387.439732 
L 509.108158 388.778118 
L 512.549954 385.284896 
L 515.991751 389.100839 
L 519.433547 383.74489 
L 522.875344 385.654578 
L 526.31714 382.464401 
L 529.758937 385.036789 
L 533.200733 379.503453 
L 536.64253 385.481484 
L 536.64253 385.481484 
" style="fill:none;stroke:#8dd3c7;stroke-linecap:square;stroke-width:1.5;"/>
   </g>
   <g id="patch_5">
    <path d="M 72 438.192 
L 72 329.472 
" style="fill:none;stroke:#ffffff;stroke-linecap:square;stroke-linejoin:miter;stroke-width:0.8;"/>
   </g>
  </g>
  <g id="axes_3">
   <g id="patch_6">
    <path d="M 72 612.144 
L 518.4 612.144 
L 518.4 503.424 
L 72 503.424 
z
" style="fill:none;"/>
   </g>
   <g id="matplotlib.axis_5"/>
   <g id="matplotlib.axis_6">
    <g id="ytick_7">
     <g id="line2d_10">
      <g>
       <use style="fill:#ffffff;stroke:#ffffff;stroke-width:0.8;" x="72" xlink:href="#m59f17806ff" y="612.144"/>
      </g>
     </g>
     <g id="text_9">
      <!-- −1 -->
      <g style="fill:#ffffff;" transform="translate(29.61875 621.262125)scale(0.24 -0.24)">
       <use xlink:href="#DejaVuSans-2212"/>
       <use x="83.789062" xlink:href="#DejaVuSans-31"/>
      </g>
     </g>
    </g>
    <g id="ytick_8">
     <g id="line2d_11">
      <g>
       <use style="fill:#ffffff;stroke:#ffffff;stroke-width:0.8;" x="72" xlink:href="#m59f17806ff" y="557.784"/>
      </g>
     </g>
     <g id="text_10">
      <!-- 0 -->
      <g style="fill:#ffffff;" transform="translate(49.73 566.902125)scale(0.24 -0.24)">
       <use xlink:href="#DejaVuSans-30"/>
      </g>
     </g>
    </g>
    <g id="ytick_9">
     <g id="line2d_12">
      <g>
       <use style="fill:#ffffff;stroke:#ffffff;stroke-width:0.8;" x="72" xlink:href="#m59f17806ff" y="503.424"/>
      </g>
     </g>
     <g id="text_11">
      <!-- 1 -->
      <g style="fill:#ffffff;" transform="translate(49.73 512.542125)scale(0.24 -0.24)">
       <use xlink:href="#DejaVuSans-31"/>
      </g>
     </g>
    </g>
    <g id="text_12">
     <!-- $\Delta$F/F -->
     <g style="fill:#ffffff;" transform="translate(20.6275 583.944)rotate(-90)scale(0.24 -0.24)">
      <use transform="translate(0 0.09375)" xlink:href="#DejaVuSans-394"/>
      <use transform="translate(68.408203 0.09375)" xlink:href="#DejaVuSans-46"/>
      <use transform="translate(125.927734 0.09375)" xlink:href="#DejaVuSans-2f"/>
      <use transform="translate(159.619141 0.09375)" xlink:href="#DejaVuSans-46"/>
     </g>
    </g>
   </g>
   <g id="line2d_13">
    <path clip-path="url(#pffbb540637)" d="M 72 535.630644 
L 75.441797 541.072555 
L 78.883593 544.759105 
L 82.32539 548.621402 
L 85.767186 544.540799 
L 89.208983 549.35056 
L 92.650779 547.044307 
L 96.092576 548.814934 
L 99.534372 545.249396 
L 102.976169 553.670861 
L 106.417965 552.648895 
L 109.859762 552.471452 
L 113.301558 551.630855 
L 116.743355 554.926414 
L 120.185151 554.47953 
L 123.626948 556.731442 
L 127.068744 555.25277 
L 130.510541 561.778522 
L 133.952337 557.019353 
L 137.394134 554.825613 
L 140.83593 555.660191 
L 144.277727 559.887032 
L 147.719523 553.814533 
L 151.16132 558.748711 
L 154.603116 555.328245 
L 158.044913 559.588087 
L 161.486709 555.682104 
L 164.928506 555.539171 
L 168.370302 557.807951 
L 171.812099 554.420097 
L 175.253896 557.681099 
L 178.695692 553.950902 
L 182.137489 555.909555 
L 185.579285 557.052308 
L 189.021082 556.116835 
L 192.462878 556.182745 
L 195.904675 561.188122 
L 199.346471 557.358095 
L 202.788268 562.150119 
L 206.230064 559.978743 
L 209.671861 559.293529 
L 213.113657 558.785842 
L 216.555454 553.438022 
L 219.99725 559.010082 
L 223.439047 560.684813 
L 226.880843 557.193296 
L 230.32264 559.615941 
L 233.764436 557.806831 
L 237.206233 553.845637 
L 240.648029 561.591748 
L 244.089826 557.998994 
L 247.531622 560.689673 
L 250.973419 559.704776 
L 254.415215 560.545722 
L 257.857012 556.745727 
L 261.298808 556.680999 
L 264.740605 560.399236 
L 268.182402 552.235198 
L 271.624198 555.838699 
L 275.065995 554.298984 
L 278.507791 563.819166 
L 281.949588 564.445384 
L 285.391384 578.533692 
L 288.833181 581.674997 
L 292.274977 586.358202 
L 295.716774 587.888881 
L 299.15857 591.491744 
L 302.600367 595.502751 
L 306.042163 593.365832 
L 309.48396 585.174531 
L 312.925756 589.653955 
L 316.367553 587.916385 
L 319.809349 583.954025 
L 323.251146 592.616705 
L 326.692942 590.501162 
L 330.134739 588.726313 
L 333.576535 590.290678 
L 337.018332 584.936147 
L 340.460128 584.415101 
L 343.901925 575.831784 
L 347.343721 575.913099 
L 350.785518 572.570735 
L 354.227314 568.904201 
L 357.669111 566.16517 
L 361.110907 562.774346 
L 364.552704 562.286442 
L 367.994501 559.827739 
L 371.436297 556.992774 
L 374.878094 555.085389 
L 378.31989 555.254029 
L 381.761687 556.424823 
L 385.203483 560.760094 
L 388.64528 556.935425 
L 392.087076 555.459707 
L 395.528873 558.354269 
L 398.970669 556.085248 
L 402.412466 551.710607 
L 405.854262 556.222255 
L 409.296059 549.528827 
L 412.737855 553.280167 
L 416.179652 555.858622 
L 419.621448 551.30027 
L 423.063245 555.604778 
L 426.505041 555.420586 
L 429.946838 551.916923 
L 433.388634 549.811581 
L 436.830431 555.356145 
L 440.272227 558.618656 
L 443.714024 551.793376 
L 447.15582 556.43221 
L 450.597617 555.333548 
L 454.039413 541.506415 
L 457.48121 548.800253 
L 460.923006 544.419103 
L 464.364803 546.769142 
L 467.8066 547.779149 
L 471.248396 542.208597 
L 474.690193 544.913904 
L 478.131989 541.62962 
L 481.573786 550.864956 
L 485.015582 545.672463 
L 488.457379 551.517806 
L 491.899175 542.948447 
L 495.340972 552.995219 
L 498.782768 546.350446 
L 502.224565 544.585216 
L 505.666361 543.623506 
L 509.108158 546.288524 
L 519.433547 542.943439 
L 522.875344 550.007928 
L 526.31714 540.48969 
L 529.758937 547.10895 
L 533.200733 548.592343 
L 536.64253 546.980069 
L 536.64253 546.980069 
" style="fill:none;stroke:#8dd3c7;stroke-linecap:square;stroke-width:1.5;"/>
   </g>
   <g id="patch_7">
    <path d="M 72 612.144 
L 72 503.424 
" style="fill:none;stroke:#ffffff;stroke-linecap:square;stroke-linejoin:miter;stroke-width:0.8;"/>
   </g>
  </g>
  <g id="axes_4">
   <g id="patch_8">
    <path d="M 72 786.096 
L 518.4 786.096 
L 518.4 677.376 
L 72 677.376 
z
" style="fill:none;"/>
   </g>
   <g id="matplotlib.axis_7"/>
   <g id="matplotlib.axis_8">
    <g id="ytick_10">
     <g id="line2d_14">
      <g>
       <use style="fill:#ffffff;stroke:#ffffff;stroke-width:0.8;" x="72" xlink:href="#m59f17806ff" y="786.096"/>
      </g>
     </g>
     <g id="text_13">
      <!-- −1 -->
      <g style="fill:#ffffff;" transform="translate(29.61875 795.214125)scale(0.24 -0.24)">
       <use xlink:href="#DejaVuSans-2212"/>
       <use x="83.789062" xlink:href="#DejaVuSans-31"/>
      </g>
     </g>
    </g>
    <g id="ytick_11">
     <g id="line2d_15">
      <g>
       <use style="fill:#ffffff;stroke:#ffffff;stroke-width:0.8;" x="72" xlink:href="#m59f17806ff" y="731.736"/>
      </g>
     </g>
     <g id="text_14">
      <!-- 0 -->
      <g style="fill:#ffffff;" transform="translate(49.73 740.854125)scale(0.24 -0.24)">
       <use xlink:href="#DejaVuSans-30"/>
      </g>
     </g>
    </g>
    <g id="ytick_12">
     <g id="line2d_16">
      <g>
       <use style="fill:#ffffff;stroke:#ffffff;stroke-width:0.8;" x="72" xlink:href="#m59f17806ff" y="677.376"/>
      </g>
     </g>
     <g id="text_15">
      <!-- 1 -->
      <g style="fill:#ffffff;" transform="translate(49.73 686.494125)scale(0.24 -0.24)">
       <use xlink:href="#DejaVuSans-31"/>
      </g>
     </g>
    </g>
    <g id="text_16">
     <!-- $\Delta$F/F -->
     <g style="fill:#ffffff;" transform="translate(20.6275 757.896)rotate(-90)scale(0.24 -0.24)">
      <use transform="translate(0 0.09375)" xlink:href="#DejaVuSans-394"/>
      <use transform="translate(68.408203 0.09375)" xlink:href="#DejaVuSans-46"/>
      <use transform="translate(125.927734 0.09375)" xlink:href="#DejaVuSans-2f"/>
      <use transform="translate(159.619141 0.09375)" xlink:href="#DejaVuSans-46"/>
     </g>
    </g>
   </g>
   <g id="line2d_17">
    <path clip-path="url(#p83d67c59ec)" d="M 72 725.225614 
L 75.441797 718.111977 
L 78.883593 729.364708 
L 82.32539 726.272482 
L 85.767186 723.825479 
L 89.208983 731.689152 
L 92.650779 729.105203 
L 96.092576 732.215774 
L 99.534372 735.553812 
L 102.976169 730.169194 
L 106.417965 736.744695 
L 109.859762 733.457811 
L 113.301558 724.488575 
L 116.743355 726.493966 
L 120.185151 726.529752 
L 123.626948 731.434395 
L 127.068744 726.693699 
L 130.510541 732.173556 
L 133.952337 727.564843 
L 137.394134 727.997774 
L 140.83593 740.144309 
L 144.277727 733.970078 
L 147.719523 731.843644 
L 151.16132 732.149236 
L 154.603116 733.576213 
L 158.044913 735.284637 
L 161.486709 737.451358 
L 164.928506 735.919687 
L 168.370302 740.325124 
L 171.812099 709.764339 
L 178.695692 738.991191 
L 182.137489 732.065966 
L 185.579285 734.430042 
L 189.021082 738.668683 
L 192.462878 724.160601 
L 195.904675 737.908617 
L 199.346471 737.844074 
L 202.788268 743.435048 
L 206.230064 742.368479 
L 209.671861 736.011056 
L 213.113657 719.165221 
L 216.555454 729.142394 
L 219.99725 728.886033 
L 223.439047 724.779749 
L 226.880843 735.964474 
L 230.32264 735.189662 
L 233.764436 738.214393 
L 237.206233 737.685321 
L 240.648029 738.608784 
L 244.089826 744.258828 
L 247.531622 738.739985 
L 250.973419 725.75372 
L 254.415215 707.207352 
L 257.857012 716.097179 
L 261.298808 719.381622 
L 264.740605 728.929336 
L 268.182402 730.048917 
L 271.624198 707.669566 
L 275.065995 712.504327 
L 278.507791 721.261087 
L 281.949588 709.781526 
L 285.391384 718.241822 
L 288.833181 726.214378 
L 292.274977 726.307103 
L 295.716774 740.842665 
L 299.15857 751.837766 
L 302.600367 754.947044 
L 306.042163 753.123625 
L 309.48396 726.533423 
L 312.925756 747.63464 
L 316.367553 747.734634 
L 319.809349 744.234699 
L 323.251146 754.441591 
L 326.692942 745.901815 
L 330.134739 752.751758 
L 333.576535 749.317395 
L 337.018332 742.377432 
L 340.460128 748.207588 
L 343.901925 737.891039 
L 347.343721 738.501066 
L 350.785518 735.670339 
L 354.227314 737.931964 
L 357.669111 728.291198 
L 361.110907 707.534495 
L 364.552704 717.608072 
L 367.994501 722.510329 
L 371.436297 714.466487 
L 374.878094 726.872017 
L 378.31989 735.688867 
L 381.761687 726.73322 
L 385.203483 707.88114 
L 388.64528 725.958216 
L 392.087076 735.943816 
L 395.528873 722.715153 
L 398.970669 723.825662 
L 402.412466 707.034644 
L 405.854262 697.390215 
L 409.296059 710.017803 
L 412.737855 725.018412 
L 416.179652 713.639037 
L 419.621448 718.057017 
L 423.063245 715.022129 
L 426.505041 717.122112 
L 429.946838 728.341387 
L 433.388634 734.995594 
L 436.830431 739.334237 
L 440.272227 737.550706 
L 443.714024 748.895787 
L 447.15582 739.831584 
L 450.597617 738.710773 
L 454.039413 727.434672 
L 457.48121 725.578299 
L 460.923006 727.00064 
L 464.364803 735.786547 
L 467.8066 730.771298 
L 471.248396 703.366636 
L 474.690193 712.048424 
L 478.131989 714.704185 
L 481.573786 731.818557 
L 485.015582 738.577051 
L 488.457379 734.76941 
L 491.899175 739.705522 
L 495.340972 744.260695 
L 498.782768 734.462724 
L 502.224565 734.212411 
L 505.666361 730.92733 
L 509.108158 729.22572 
L 512.549954 727.331199 
L 515.991751 727.095879 
L 519.433547 730.519047 
L 522.875344 727.754028 
L 526.31714 722.699067 
L 529.758937 728.287663 
L 533.200733 724.39668 
L 536.64253 732.633121 
L 536.64253 732.633121 
" style="fill:none;stroke:#8dd3c7;stroke-linecap:square;stroke-width:1.5;"/>
   </g>
   <g id="patch_9">
    <path d="M 72 786.096 
L 72 677.376 
" style="fill:none;stroke:#ffffff;stroke-linecap:square;stroke-linejoin:miter;stroke-width:0.8;"/>
   </g>
  </g>
  <g id="axes_5">
   <g id="patch_10">
    <path d="M 72 960.048 
L 518.4 960.048 
L 518.4 851.328 
L 72 851.328 
z
" style="fill:none;"/>
   </g>
   <g id="matplotlib.axis_9"/>
   <g id="matplotlib.axis_10">
    <g id="ytick_13">
     <g id="line2d_18">
      <g>
       <use style="fill:#ffffff;stroke:#ffffff;stroke-width:0.8;" x="72" xlink:href="#m59f17806ff" y="960.048"/>
      </g>
     </g>
     <g id="text_17">
      <!-- −1 -->
      <g style="fill:#ffffff;" transform="translate(29.61875 969.166125)scale(0.24 -0.24)">
       <use xlink:href="#DejaVuSans-2212"/>
       <use x="83.789062" xlink:href="#DejaVuSans-31"/>
      </g>
     </g>
    </g>
    <g id="ytick_14">
     <g id="line2d_19">
      <g>
       <use style="fill:#ffffff;stroke:#ffffff;stroke-width:0.8;" x="72" xlink:href="#m59f17806ff" y="905.688"/>
      </g>
     </g>
     <g id="text_18">
      <!-- 0 -->
      <g style="fill:#ffffff;" transform="translate(49.73 914.806125)scale(0.24 -0.24)">
       <use xlink:href="#DejaVuSans-30"/>
      </g>
     </g>
    </g>
    <g id="ytick_15">
     <g id="line2d_20">
      <g>
       <use style="fill:#ffffff;stroke:#ffffff;stroke-width:0.8;" x="72" xlink:href="#m59f17806ff" y="851.328"/>
      </g>
     </g>
     <g id="text_19">
      <!-- 1 -->
      <g style="fill:#ffffff;" transform="translate(49.73 860.446125)scale(0.24 -0.24)">
       <use xlink:href="#DejaVuSans-31"/>
      </g>
     </g>
    </g>
    <g id="text_20">
     <!-- $\Delta$F/F -->
     <g style="fill:#ffffff;" transform="translate(20.6275 931.848)rotate(-90)scale(0.24 -0.24)">
      <use transform="translate(0 0.09375)" xlink:href="#DejaVuSans-394"/>
      <use transform="translate(68.408203 0.09375)" xlink:href="#DejaVuSans-46"/>
      <use transform="translate(125.927734 0.09375)" xlink:href="#DejaVuSans-2f"/>
      <use transform="translate(159.619141 0.09375)" xlink:href="#DejaVuSans-46"/>
     </g>
    </g>
   </g>
   <g id="line2d_21">
    <path clip-path="url(#p1922a88acc)" d="M 72 895.488897 
L 75.441797 894.660556 
L 78.883593 900.105435 
L 82.32539 896.471265 
L 85.767186 894.602467 
L 89.208983 900.606592 
L 92.650779 897.799655 
L 96.092576 898.839258 
L 99.534372 895.366131 
L 102.976169 899.127664 
L 106.417965 899.127148 
L 109.859762 900.7737 
L 113.301558 895.750258 
L 116.743355 893.961959 
L 120.185151 896.073196 
L 123.626948 899.767139 
L 127.068744 900.23014 
L 130.510541 898.831973 
L 133.952337 901.775228 
L 137.394134 889.578059 
L 140.83593 896.345646 
L 144.277727 904.735009 
L 147.719523 899.154005 
L 151.16132 897.047807 
L 154.603116 905.783716 
L 158.044913 901.821636 
L 161.486709 901.096316 
L 164.928506 899.662957 
L 168.370302 895.824235 
L 171.812099 899.497587 
L 175.253896 898.977202 
L 178.695692 903.185465 
L 182.137489 909.936026 
L 185.579285 899.696142 
L 189.021082 904.690083 
L 192.462878 900.940882 
L 195.904675 905.601499 
L 199.346471 905.651269 
L 202.788268 908.146109 
L 206.230064 910.960788 
L 209.671861 909.481546 
L 213.113657 908.320772 
L 216.555454 907.794194 
L 219.99725 902.795154 
L 223.439047 908.939858 
L 226.880843 907.430912 
L 230.32264 907.758044 
L 233.764436 906.957204 
L 237.206233 912.141824 
L 240.648029 907.445438 
L 244.089826 911.544556 
L 247.531622 913.762102 
L 250.973419 907.64141 
L 254.415215 906.686611 
L 257.857012 902.978786 
L 261.298808 906.532151 
L 264.740605 905.78591 
L 268.182402 908.01933 
L 271.624198 906.283384 
L 275.065995 897.691018 
L 278.507791 906.157518 
L 281.949588 900.502276 
L 285.391384 892.445203 
L 288.833181 894.41438 
L 292.274977 898.687313 
L 295.716774 899.463893 
L 299.15857 899.029809 
L 302.600367 912.693574 
L 306.042163 910.587833 
L 309.48396 910.659474 
L 312.925756 926.111224 
L 316.367553 927.031931 
L 319.809349 926.840804 
L 323.251146 930.776872 
L 326.692942 925.908925 
L 330.134739 920.115619 
L 333.576535 918.760176 
L 337.018332 913.676901 
L 340.460128 910.773083 
L 343.901925 918.2729 
L 347.343721 911.122871 
L 350.785518 909.504263 
L 354.227314 912.592687 
L 357.669111 909.560285 
L 361.110907 908.468262 
L 364.552704 911.257902 
L 367.994501 911.42295 
L 371.436297 910.157747 
L 374.878094 914.39951 
L 378.31989 916.117074 
L 381.761687 916.108486 
L 385.203483 913.517274 
L 388.64528 913.908948 
L 392.087076 912.083728 
L 395.528873 912.943509 
L 398.970669 906.572239 
L 402.412466 920.981016 
L 405.854262 908.311345 
L 409.296059 913.981757 
L 412.737855 913.625319 
L 416.179652 910.443697 
L 419.621448 905.628926 
L 423.063245 914.588901 
L 426.505041 909.714686 
L 429.946838 909.958938 
L 433.388634 922.131585 
L 436.830431 916.504032 
L 440.272227 919.280756 
L 443.714024 916.930501 
L 447.15582 915.309122 
L 450.597617 921.185891 
L 454.039413 914.616777 
L 457.48121 920.738704 
L 460.923006 916.891767 
L 464.364803 920.936413 
L 467.8066 917.428745 
L 471.248396 923.052293 
L 474.690193 921.771987 
L 478.131989 917.286549 
L 481.573786 921.997004 
L 485.015582 921.846534 
L 488.457379 919.163733 
L 491.899175 920.709203 
L 495.340972 924.383664 
L 498.782768 911.878464 
L 502.224565 916.414054 
L 505.666361 917.462574 
L 509.108158 917.918993 
L 512.549954 916.928951 
L 515.991751 919.766092 
L 519.433547 919.735431 
L 522.875344 921.773792 
L 526.31714 919.873367 
L 529.758937 919.678757 
L 533.200733 918.358558 
L 536.64253 921.458154 
L 536.64253 921.458154 
" style="fill:none;stroke:#8dd3c7;stroke-linecap:square;stroke-width:1.5;"/>
   </g>
   <g id="patch_11">
    <path d="M 72 960.048 
L 72 851.328 
" style="fill:none;stroke:#ffffff;stroke-linecap:square;stroke-linejoin:miter;stroke-width:0.8;"/>
   </g>
  </g>
  <g id="axes_6">
   <g id="patch_12">
    <path d="M 72 1134 
L 518.4 1134 
L 518.4 1025.28 
L 72 1025.28 
z
" style="fill:none;"/>
   </g>
   <g id="matplotlib.axis_11">
    <g id="xtick_1">
     <g id="line2d_22">
      <defs>
       <path d="M 0 0 
L 0 3.5 
" id="mb2e1272309" style="stroke:#ffffff;stroke-width:0.8;"/>
      </defs>
      <g>
       <use style="fill:#ffffff;stroke:#ffffff;stroke-width:0.8;" x="72" xlink:href="#mb2e1272309" y="1134"/>
      </g>
     </g>
     <g id="text_21">
      <!-- 0 -->
      <g style="fill:#ffffff;" transform="translate(64.365 1159.23625)scale(0.24 -0.24)">
       <use xlink:href="#DejaVuSans-30"/>
      </g>
     </g>
    </g>
    <g id="xtick_2">
     <g id="line2d_23">
      <g>
       <use style="fill:#ffffff;stroke:#ffffff;stroke-width:0.8;" x="177.035294" xlink:href="#mb2e1272309" y="1134"/>
      </g>
     </g>
     <g id="text_22">
      <!-- 20 -->
      <g style="fill:#ffffff;" transform="translate(161.765294 1159.23625)scale(0.24 -0.24)">
       <defs>
        <path d="M 1228 531 
L 3431 531 
L 3431 0 
L 469 0 
L 469 531 
Q 828 903 1448 1529 
Q 2069 2156 2228 2338 
Q 2531 2678 2651 2914 
Q 2772 3150 2772 3378 
Q 2772 3750 2511 3984 
Q 2250 4219 1831 4219 
Q 1534 4219 1204 4116 
Q 875 4013 500 3803 
L 500 4441 
Q 881 4594 1212 4672 
Q 1544 4750 1819 4750 
Q 2544 4750 2975 4387 
Q 3406 4025 3406 3419 
Q 3406 3131 3298 2873 
Q 3191 2616 2906 2266 
Q 2828 2175 2409 1742 
Q 1991 1309 1228 531 
z
" id="DejaVuSans-32" transform="scale(0.015625)"/>
       </defs>
       <use xlink:href="#DejaVuSans-32"/>
       <use x="63.623047" xlink:href="#DejaVuSans-30"/>
      </g>
     </g>
    </g>
    <g id="xtick_3">
     <g id="line2d_24">
      <g>
       <use style="fill:#ffffff;stroke:#ffffff;stroke-width:0.8;" x="282.070588" xlink:href="#mb2e1272309" y="1134"/>
      </g>
     </g>
     <g id="text_23">
      <!-- 40 -->
      <g style="fill:#ffffff;" transform="translate(266.800588 1159.23625)scale(0.24 -0.24)">
       <defs>
        <path d="M 2419 4116 
L 825 1625 
L 2419 1625 
L 2419 4116 
z
M 2253 4666 
L 3047 4666 
L 3047 1625 
L 3713 1625 
L 3713 1100 
L 3047 1100 
L 3047 0 
L 2419 0 
L 2419 1100 
L 313 1100 
L 313 1709 
L 2253 4666 
z
" id="DejaVuSans-34" transform="scale(0.015625)"/>
       </defs>
       <use xlink:href="#DejaVuSans-34"/>
       <use x="63.623047" xlink:href="#DejaVuSans-30"/>
      </g>
     </g>
    </g>
    <g id="xtick_4">
     <g id="line2d_25">
      <g>
       <use style="fill:#ffffff;stroke:#ffffff;stroke-width:0.8;" x="387.105882" xlink:href="#mb2e1272309" y="1134"/>
      </g>
     </g>
     <g id="text_24">
      <!-- 60 -->
      <g style="fill:#ffffff;" transform="translate(371.835882 1159.23625)scale(0.24 -0.24)">
       <defs>
        <path d="M 2113 2584 
Q 1688 2584 1439 2293 
Q 1191 2003 1191 1497 
Q 1191 994 1439 701 
Q 1688 409 2113 409 
Q 2538 409 2786 701 
Q 3034 994 3034 1497 
Q 3034 2003 2786 2293 
Q 2538 2584 2113 2584 
z
M 3366 4563 
L 3366 3988 
Q 3128 4100 2886 4159 
Q 2644 4219 2406 4219 
Q 1781 4219 1451 3797 
Q 1122 3375 1075 2522 
Q 1259 2794 1537 2939 
Q 1816 3084 2150 3084 
Q 2853 3084 3261 2657 
Q 3669 2231 3669 1497 
Q 3669 778 3244 343 
Q 2819 -91 2113 -91 
Q 1303 -91 875 529 
Q 447 1150 447 2328 
Q 447 3434 972 4092 
Q 1497 4750 2381 4750 
Q 2619 4750 2861 4703 
Q 3103 4656 3366 4563 
z
" id="DejaVuSans-36" transform="scale(0.015625)"/>
       </defs>
       <use xlink:href="#DejaVuSans-36"/>
       <use x="63.623047" xlink:href="#DejaVuSans-30"/>
      </g>
     </g>
    </g>
    <g id="xtick_5">
     <g id="line2d_26">
      <g>
       <use style="fill:#ffffff;stroke:#ffffff;stroke-width:0.8;" x="492.141176" xlink:href="#mb2e1272309" y="1134"/>
      </g>
     </g>
     <g id="text_25">
      <!-- 80 -->
      <g style="fill:#ffffff;" transform="translate(476.871176 1159.23625)scale(0.24 -0.24)">
       <defs>
        <path d="M 2034 2216 
Q 1584 2216 1326 1975 
Q 1069 1734 1069 1313 
Q 1069 891 1326 650 
Q 1584 409 2034 409 
Q 2484 409 2743 651 
Q 3003 894 3003 1313 
Q 3003 1734 2745 1975 
Q 2488 2216 2034 2216 
z
M 1403 2484 
Q 997 2584 770 2862 
Q 544 3141 544 3541 
Q 544 4100 942 4425 
Q 1341 4750 2034 4750 
Q 2731 4750 3128 4425 
Q 3525 4100 3525 3541 
Q 3525 3141 3298 2862 
Q 3072 2584 2669 2484 
Q 3125 2378 3379 2068 
Q 3634 1759 3634 1313 
Q 3634 634 3220 271 
Q 2806 -91 2034 -91 
Q 1263 -91 848 271 
Q 434 634 434 1313 
Q 434 1759 690 2068 
Q 947 2378 1403 2484 
z
M 1172 3481 
Q 1172 3119 1398 2916 
Q 1625 2713 2034 2713 
Q 2441 2713 2670 2916 
Q 2900 3119 2900 3481 
Q 2900 3844 2670 4047 
Q 2441 4250 2034 4250 
Q 1625 4250 1398 4047 
Q 1172 3844 1172 3481 
z
" id="DejaVuSans-38" transform="scale(0.015625)"/>
       </defs>
       <use xlink:href="#DejaVuSans-38"/>
       <use x="63.623047" xlink:href="#DejaVuSans-30"/>
      </g>
     </g>
    </g>
    <g id="text_26">
     <!-- time (sec) -->
     <g style="fill:#ffffff;" transform="translate(234.67875 1186.46375)scale(0.24 -0.24)">
      <defs>
       <path d="M 1172 4494 
L 1172 3500 
L 2356 3500 
L 2356 3053 
L 1172 3053 
L 1172 1153 
Q 1172 725 1289 603 
Q 1406 481 1766 481 
L 2356 481 
L 2356 0 
L 1766 0 
Q 1100 0 847 248 
Q 594 497 594 1153 
L 594 3053 
L 172 3053 
L 172 3500 
L 594 3500 
L 594 4494 
L 1172 4494 
z
" id="DejaVuSans-74" transform="scale(0.015625)"/>
       <path d="M 603 3500 
L 1178 3500 
L 1178 0 
L 603 0 
L 603 3500 
z
M 603 4863 
L 1178 4863 
L 1178 4134 
L 603 4134 
L 603 4863 
z
" id="DejaVuSans-69" transform="scale(0.015625)"/>
       <path d="M 3328 2828 
Q 3544 3216 3844 3400 
Q 4144 3584 4550 3584 
Q 5097 3584 5394 3201 
Q 5691 2819 5691 2113 
L 5691 0 
L 5113 0 
L 5113 2094 
Q 5113 2597 4934 2840 
Q 4756 3084 4391 3084 
Q 3944 3084 3684 2787 
Q 3425 2491 3425 1978 
L 3425 0 
L 2847 0 
L 2847 2094 
Q 2847 2600 2669 2842 
Q 2491 3084 2119 3084 
Q 1678 3084 1418 2786 
Q 1159 2488 1159 1978 
L 1159 0 
L 581 0 
L 581 3500 
L 1159 3500 
L 1159 2956 
Q 1356 3278 1631 3431 
Q 1906 3584 2284 3584 
Q 2666 3584 2933 3390 
Q 3200 3197 3328 2828 
z
" id="DejaVuSans-6d" transform="scale(0.015625)"/>
       <path d="M 3597 1894 
L 3597 1613 
L 953 1613 
Q 991 1019 1311 708 
Q 1631 397 2203 397 
Q 2534 397 2845 478 
Q 3156 559 3463 722 
L 3463 178 
Q 3153 47 2828 -22 
Q 2503 -91 2169 -91 
Q 1331 -91 842 396 
Q 353 884 353 1716 
Q 353 2575 817 3079 
Q 1281 3584 2069 3584 
Q 2775 3584 3186 3129 
Q 3597 2675 3597 1894 
z
M 3022 2063 
Q 3016 2534 2758 2815 
Q 2500 3097 2075 3097 
Q 1594 3097 1305 2825 
Q 1016 2553 972 2059 
L 3022 2063 
z
" id="DejaVuSans-65" transform="scale(0.015625)"/>
       <path id="DejaVuSans-20" transform="scale(0.015625)"/>
       <path d="M 1984 4856 
Q 1566 4138 1362 3434 
Q 1159 2731 1159 2009 
Q 1159 1288 1364 580 
Q 1569 -128 1984 -844 
L 1484 -844 
Q 1016 -109 783 600 
Q 550 1309 550 2009 
Q 550 2706 781 3412 
Q 1013 4119 1484 4856 
L 1984 4856 
z
" id="DejaVuSans-28" transform="scale(0.015625)"/>
       <path d="M 2834 3397 
L 2834 2853 
Q 2591 2978 2328 3040 
Q 2066 3103 1784 3103 
Q 1356 3103 1142 2972 
Q 928 2841 928 2578 
Q 928 2378 1081 2264 
Q 1234 2150 1697 2047 
L 1894 2003 
Q 2506 1872 2764 1633 
Q 3022 1394 3022 966 
Q 3022 478 2636 193 
Q 2250 -91 1575 -91 
Q 1294 -91 989 -36 
Q 684 19 347 128 
L 347 722 
Q 666 556 975 473 
Q 1284 391 1588 391 
Q 1994 391 2212 530 
Q 2431 669 2431 922 
Q 2431 1156 2273 1281 
Q 2116 1406 1581 1522 
L 1381 1569 
Q 847 1681 609 1914 
Q 372 2147 372 2553 
Q 372 3047 722 3315 
Q 1072 3584 1716 3584 
Q 2034 3584 2315 3537 
Q 2597 3491 2834 3397 
z
" id="DejaVuSans-73" transform="scale(0.015625)"/>
       <path d="M 3122 3366 
L 3122 2828 
Q 2878 2963 2633 3030 
Q 2388 3097 2138 3097 
Q 1578 3097 1268 2742 
Q 959 2388 959 1747 
Q 959 1106 1268 751 
Q 1578 397 2138 397 
Q 2388 397 2633 464 
Q 2878 531 3122 666 
L 3122 134 
Q 2881 22 2623 -34 
Q 2366 -91 2075 -91 
Q 1284 -91 818 406 
Q 353 903 353 1747 
Q 353 2603 823 3093 
Q 1294 3584 2113 3584 
Q 2378 3584 2631 3529 
Q 2884 3475 3122 3366 
z
" id="DejaVuSans-63" transform="scale(0.015625)"/>
       <path d="M 513 4856 
L 1013 4856 
Q 1481 4119 1714 3412 
Q 1947 2706 1947 2009 
Q 1947 1309 1714 600 
Q 1481 -109 1013 -844 
L 513 -844 
Q 928 -128 1133 580 
Q 1338 1288 1338 2009 
Q 1338 2731 1133 3434 
Q 928 4138 513 4856 
z
" id="DejaVuSans-29" transform="scale(0.015625)"/>
      </defs>
      <use xlink:href="#DejaVuSans-74"/>
      <use x="39.208984" xlink:href="#DejaVuSans-69"/>
      <use x="66.992188" xlink:href="#DejaVuSans-6d"/>
      <use x="164.404297" xlink:href="#DejaVuSans-65"/>
      <use x="225.927734" xlink:href="#DejaVuSans-20"/>
      <use x="257.714844" xlink:href="#DejaVuSans-28"/>
      <use x="296.728516" xlink:href="#DejaVuSans-73"/>
      <use x="348.828125" xlink:href="#DejaVuSans-65"/>
      <use x="410.351562" xlink:href="#DejaVuSans-63"/>
      <use x="465.332031" xlink:href="#DejaVuSans-29"/>
     </g>
    </g>
   </g>
   <g id="matplotlib.axis_12">
    <g id="ytick_16">
     <g id="line2d_27">
      <g>
       <use style="fill:#ffffff;stroke:#ffffff;stroke-width:0.8;" x="72" xlink:href="#m59f17806ff" y="1134"/>
      </g>
     </g>
     <g id="text_27">
      <!-- −1 -->
      <g style="fill:#ffffff;" transform="translate(29.61875 1143.118125)scale(0.24 -0.24)">
       <use xlink:href="#DejaVuSans-2212"/>
       <use x="83.789062" xlink:href="#DejaVuSans-31"/>
      </g>
     </g>
    </g>
    <g id="ytick_17">
     <g id="line2d_28">
      <g>
       <use style="fill:#ffffff;stroke:#ffffff;stroke-width:0.8;" x="72" xlink:href="#m59f17806ff" y="1079.64"/>
      </g>
     </g>
     <g id="text_28">
      <!-- 0 -->
      <g style="fill:#ffffff;" transform="translate(49.73 1088.758125)scale(0.24 -0.24)">
       <use xlink:href="#DejaVuSans-30"/>
      </g>
     </g>
    </g>
    <g id="ytick_18">
     <g id="line2d_29">
      <g>
       <use style="fill:#ffffff;stroke:#ffffff;stroke-width:0.8;" x="72" xlink:href="#m59f17806ff" y="1025.28"/>
      </g>
     </g>
     <g id="text_29">
      <!-- 1 -->
      <g style="fill:#ffffff;" transform="translate(49.73 1034.398125)scale(0.24 -0.24)">
       <use xlink:href="#DejaVuSans-31"/>
      </g>
     </g>
    </g>
    <g id="text_30">
     <!-- $\Delta$F/F -->
     <g style="fill:#ffffff;" transform="translate(20.6275 1105.8)rotate(-90)scale(0.24 -0.24)">
      <use transform="translate(0 0.09375)" xlink:href="#DejaVuSans-394"/>
      <use transform="translate(68.408203 0.09375)" xlink:href="#DejaVuSans-46"/>
      <use transform="translate(125.927734 0.09375)" xlink:href="#DejaVuSans-2f"/>
      <use transform="translate(159.619141 0.09375)" xlink:href="#DejaVuSans-46"/>
     </g>
    </g>
   </g>
   <g id="line2d_30">
    <path clip-path="url(#p53a29e8987)" d="M 72 1053.633941 
L 75.441797 1066.238162 
L 78.883593 1076.061384 
L 82.32539 1073.216017 
L 85.767186 1073.99615 
L 89.208983 1074.2499 
L 92.650779 1074.269881 
L 96.092576 1077.471303 
L 99.534372 1076.334815 
L 102.976169 1076.791722 
L 106.417965 1080.302092 
L 113.301558 1082.72758 
L 116.743355 1082.23894 
L 120.185151 1078.414585 
L 123.626948 1077.534415 
L 127.068744 1077.064191 
L 130.510541 1085.409391 
L 133.952337 1080.61426 
L 137.394134 1079.826969 
L 140.83593 1082.477258 
L 144.277727 1078.687358 
L 147.719523 1077.537698 
L 151.16132 1077.215639 
L 154.603116 1081.848675 
L 158.044913 1077.260891 
L 161.486709 1081.525356 
L 164.928506 1079.70161 
L 168.370302 1085.369537 
L 171.812099 1082.698522 
L 175.253896 1083.275545 
L 178.695692 1082.66649 
L 182.137489 1078.746884 
L 185.579285 1077.531894 
L 189.021082 1080.327264 
L 192.462878 1085.398492 
L 195.904675 1079.812747 
L 199.346471 1075.129767 
L 202.788268 1078.821445 
L 206.230064 1074.763661 
L 209.671861 1080.745985 
L 213.113657 1081.949521 
L 216.555454 1078.823719 
L 219.99725 1081.016535 
L 223.439047 1084.749636 
L 226.880843 1079.029948 
L 230.32264 1087.661644 
L 233.764436 1075.632228 
L 237.206233 1076.652588 
L 240.648029 1077.266988 
L 244.089826 1076.286482 
L 247.531622 1084.42995 
L 250.973419 1082.04063 
L 254.415215 1077.619267 
L 257.857012 1075.172193 
L 261.298808 1077.250697 
L 264.740605 1072.133009 
L 268.182402 1076.628876 
L 271.624198 1073.459784 
L 275.065995 1075.597011 
L 278.507791 1081.913501 
L 281.949588 1084.229314 
L 285.391384 1100.377547 
L 288.833181 1110.967235 
L 292.274977 1112.158462 
L 299.15857 1115.079347 
L 302.600367 1117.150333 
L 306.042163 1117.472546 
L 309.48396 1116.89734 
L 312.925756 1116.12296 
L 316.367553 1115.078184 
L 319.809349 1115.019868 
L 323.251146 1117.503976 
L 326.692942 1113.977464 
L 330.134739 1114.958068 
L 333.576535 1115.460982 
L 337.018332 1112.857566 
L 340.460128 1107.097721 
L 343.901925 1102.76046 
L 347.343721 1102.627073 
L 350.785518 1095.812367 
L 354.227314 1089.832668 
L 357.669111 1091.777384 
L 361.110907 1085.409293 
L 364.552704 1093.05528 
L 367.994501 1093.103058 
L 371.436297 1088.300513 
L 374.878094 1095.317974 
L 378.31989 1091.0472 
L 381.761687 1092.181676 
L 385.203483 1090.890462 
L 388.64528 1090.637063 
L 392.087076 1088.583675 
L 395.528873 1087.503939 
L 398.970669 1089.370363 
L 402.412466 1095.035872 
L 405.854262 1090.824983 
L 409.296059 1086.401902 
L 412.737855 1091.819563 
L 423.063245 1085.225257 
L 426.505041 1092.618257 
L 429.946838 1088.042924 
L 433.388634 1091.778696 
L 436.830431 1092.755775 
L 440.272227 1089.237939 
L 443.714024 1094.929274 
L 447.15582 1087.230615 
L 450.597617 1092.301591 
L 454.039413 1088.79985 
L 457.48121 1088.071735 
L 460.923006 1088.772053 
L 464.364803 1091.749283 
L 467.8066 1091.460975 
L 471.248396 1091.504261 
L 474.690193 1092.989853 
L 478.131989 1089.712449 
L 481.573786 1090.594436 
L 485.015582 1094.760325 
L 488.457379 1089.412337 
L 491.899175 1088.279781 
L 495.340972 1091.249704 
L 498.782768 1090.435871 
L 502.224565 1089.181537 
L 505.666361 1091.763918 
L 509.108158 1087.52145 
L 512.549954 1087.977543 
L 515.991751 1090.45984 
L 519.433547 1086.965303 
L 522.875344 1089.221288 
L 526.31714 1089.990167 
L 529.758937 1091.138665 
L 533.200733 1090.41746 
L 536.64253 1092.889465 
L 536.64253 1092.889465 
" style="fill:none;stroke:#8dd3c7;stroke-linecap:square;stroke-width:1.5;"/>
   </g>
   <g id="patch_13">
    <path d="M 72 1134 
L 72 1025.28 
" style="fill:none;stroke:#ffffff;stroke-linecap:square;stroke-linejoin:miter;stroke-width:0.8;"/>
   </g>
   <g id="patch_14">
    <path d="M 72 1134 
L 518.4 1134 
" style="fill:none;stroke:#ffffff;stroke-linecap:square;stroke-linejoin:miter;stroke-width:0.8;"/>
   </g>
  </g>
 </g>
 <defs>
  <clipPath id="p48e7a405d9">
   <rect height="108.72" width="446.4" x="72" y="155.52"/>
  </clipPath>
  <clipPath id="p281de8893d">
   <rect height="108.72" width="446.4" x="72" y="329.472"/>
  </clipPath>
  <clipPath id="pffbb540637">
   <rect height="108.72" width="446.4" x="72" y="503.424"/>
  </clipPath>
  <clipPath id="p83d67c59ec">
   <rect height="108.72" width="446.4" x="72" y="677.376"/>
  </clipPath>
  <clipPath id="p1922a88acc">
   <rect height="108.72" width="446.4" x="72" y="851.328"/>
  </clipPath>
  <clipPath id="p53a29e8987">
   <rect height="108.72" width="446.4" x="72" y="1025.28"/>
  </clipPath>
 </defs>
</svg>
